<svg width="371" height="230" viewBox="0 0 371 230" fill="none" xmlns="http://www.w3.org/2000/svg">
<g filter="url(#filter0_d_2001_23703)">
<path d="M36.9518 42.6913C38.2739 42.6913 40.1896 42.9872 40.1896 45.8117C40.1896 47.9369 39.1913 48.9725 36.9518 48.9725H22.8943C20.1691 48.9725 17.5249 48.9725 17.5249 45.4082C17.5249 43.1755 18.3748 42.4761 21.2349 40.2299C23.1911 38.6831 26.348 35.9392 28.52 33.7737C30.692 31.6486 31.9062 30.2497 31.9062 28.4205C31.9062 26.9544 30.8809 25.0445 28.6279 25.0445C27.0765 25.0445 25.579 25.6632 24.5402 26.4433C23.0697 27.5866 22.8133 27.7614 21.9634 27.7614C19.8993 27.7614 18.6446 25.9994 18.6446 24.4527C18.6446 22.2872 22.9887 18.7632 28.6144 18.7632C34.6449 18.7632 38.7326 22.6907 38.7326 28.1918C38.7326 32.6304 36.3447 35.4953 27.6836 42.6913H36.9248H36.9518Z" fill="white"/>
<path d="M45.4106 44.9243C43.1306 41.3599 43.0227 36.343 43.0227 34.1371C43.0227 28.8915 44.021 25.5827 45.4915 23.2693C47.4747 20.1892 50.7125 18.75 53.9908 18.75C57.2691 18.75 60.5069 20.1488 62.4901 23.2693C64.7296 26.7933 64.9589 31.5681 64.9589 34.1371C64.9589 38.7909 64.1899 42.3553 62.5306 44.9646C59.9943 48.8921 56.2303 49.5512 53.9908 49.5512C51.7513 49.5512 48.0278 48.9594 45.4106 44.9243ZM58.1055 34.1371C58.1055 28.7839 57.0398 25.0313 53.9773 25.0313C50.699 25.0313 49.8491 29.2816 49.8491 34.164C49.8491 39.4096 50.8744 43.2699 53.9773 43.2699C57.0802 43.2699 58.1055 39.0868 58.1055 34.1371Z" fill="white"/>
<path d="M87.3676 42.6913C88.6897 42.6913 90.6054 42.9872 90.6054 45.8117C90.6054 47.9369 89.6071 48.9725 87.3676 48.9725H73.3101C70.5849 48.9725 67.9407 48.9725 67.9407 45.4082C67.9407 43.1755 68.7906 42.4761 71.6507 40.2299C73.6069 38.6831 76.7637 35.9392 78.9358 33.7737C81.1078 31.6486 82.322 30.2497 82.322 28.4205C82.322 26.9544 81.2967 25.0445 79.0437 25.0445C77.4922 25.0445 75.9947 25.6632 74.9559 26.4433C73.4854 27.5866 73.2291 27.7614 72.3792 27.7614C70.3151 27.7614 69.0604 25.9994 69.0604 24.4527C69.0604 22.2872 73.4045 18.7632 79.0302 18.7632C85.0606 18.7632 89.1484 22.6907 89.1484 28.1918C89.1484 32.6304 86.7605 35.4953 78.0993 42.6913H87.3406H87.3676Z" fill="white"/>
<path d="M95.2729 24.6679C95.2729 22.3948 95.6102 19.3416 100.386 19.3416H110.329C111.502 19.3416 113.567 19.5568 113.567 22.4217C113.567 25.2866 111.799 25.6094 110.329 25.6094H102.679C101.83 25.6094 101.573 25.8649 101.573 26.7123V29.6848C102.828 29.3889 103.705 29.1737 105 29.1737C110.153 29.1737 115.347 32.4421 115.347 39.0866C115.347 44.4398 111.745 49.5509 103.273 49.5509C101.357 49.5509 98.16 49.2147 95.7991 48.2328C94.369 47.641 93.8159 46.834 93.8159 45.5158C93.8159 43.6462 95.0301 42.1398 96.5411 42.1398C97.0537 42.1398 97.5394 42.2878 98.7941 42.6509C99.7924 42.9468 101.007 43.2696 102.949 43.2696C103.826 43.2696 108.508 43.2696 108.508 39.1942C108.508 37.069 106.997 35.455 104.379 35.455C102.828 35.455 102.288 35.8585 100.845 36.9211C100.548 37.1363 99.6305 37.6474 98.3758 37.6474C95.2864 37.6474 95.2864 35.3743 95.2864 34.2041V24.6679H95.2729Z" fill="white"/>
<path d="M149.264 20.2697C150.006 20.2697 152.245 20.2697 152.245 23.027C152.245 25.2597 151.328 26.1475 149.264 26.1475H141.318V29.12H148.131C149.345 29.12 151.045 29.3755 151.045 31.7562C151.045 33.7334 150.451 34.796 148.131 34.796H141.318V39.0866H150.559C151.706 39.0866 153.5 39.2346 153.5 41.9919C153.5 44.7492 151.841 44.8972 150.559 44.8972H141.318V49.6989C141.318 50.9498 141.129 52.6042 138.336 52.6042C135.692 52.6042 135.058 51.6492 135.058 49.6989V44.8972H121.176C120.218 44.8972 118.235 44.8568 118.235 42.0323C118.235 39.2077 120.069 39.1001 121.176 39.1001H123.267V33.7065C123.267 32.9399 123.307 32.6036 123.375 32.2404C123.037 32.496 122.673 32.7919 121.864 32.7919C119.988 32.7919 118.073 31.0703 118.073 29.1603C118.073 27.9901 118.113 27.9498 120.946 25.0849C123.051 22.9597 124.292 20.8211 125.331 19.0995C125.924 18.0773 126.437 17.4182 127.948 17.4182C129.567 17.4182 131.739 18.3732 131.672 20.2831H149.264V20.2697ZM128.65 26.1475C128.353 26.5913 127.395 27.9498 126.262 29.2679C126.963 29.1603 127.435 29.12 127.881 29.12H135.058V26.1475H128.65ZM135.058 39.1001V34.8094H130.269C129.715 34.8094 129.419 35.1054 129.419 35.6568V39.1001H135.044H135.058Z" fill="white"/>
</g>
<g filter="url(#filter1_d_2001_23703)">
<path d="M30.476 81.4014C29.6531 82.0066 27.9937 83.123 26.4153 83.123C23.3259 83.123 20.6277 79.3031 20.6277 76.5189C20.6277 74.2727 22.4355 73.0757 24.0814 71.9458L33.0258 65.8797C34.4559 64.9113 36.412 63.6335 39.5689 63.6335C47.0834 63.6335 47.0834 69.4844 47.0834 71.6499V120.084C47.0834 122.936 46.3279 126.527 40.1625 126.527C35.1304 126.527 33.0933 124.577 33.0933 120.084V79.599L30.4626 81.4014H30.476Z" fill="white"/>
</g>
<g filter="url(#filter2_d_2001_23703)">
<path d="M75.8461 116.103C75.5089 119.372 75.1446 121.43 74.0788 123.851C72.8242 126.756 71.8663 127.227 70.3958 127.227C68.4396 127.227 66.5239 125.935 66.5239 124.294C66.5239 123.447 66.8207 122.869 67.5492 121.618C68.7229 119.6 70.2339 117.031 70.2339 108.854V98.3623C70.2339 94.3272 72.1901 93.2646 75.3065 93.2646H92.1297C95.3 93.2646 97.2427 94.3272 97.2427 98.3623V121.779C97.2427 126.958 94.3287 126.958 89.1482 126.958C88.0014 126.958 85.654 126.958 84.8041 126.662C83.1852 126.151 82.8479 124.604 82.8479 123.541C82.8479 120.501 84.8716 120.501 85.8294 120.501C86.3421 120.501 88.595 120.609 89.0268 120.609C90.2005 120.609 90.902 120.542 90.902 119.506V116.13H75.8057L75.8461 116.103ZM90.9425 102.007V100.393C90.9425 99.7342 90.5782 99.3711 89.9172 99.3711H77.3976C76.6961 99.3711 76.3723 99.7746 76.3723 100.393V102.007H90.9425ZM76.3588 107.616V110.441H90.929V107.616H76.3588Z" fill="white"/>
</g>
<g filter="url(#filter3_d_2001_23703)">
<path d="M119.705 81.4021C118.882 82.0074 117.222 83.1237 115.644 83.1237C112.555 83.1237 109.856 79.3039 109.856 76.5197C109.856 74.2735 111.664 73.0764 113.31 71.9466L122.255 65.8805C123.685 64.9121 125.641 63.6343 128.798 63.6343C136.312 63.6343 136.312 69.4852 136.312 71.6507V120.085C136.312 122.937 135.557 126.528 129.391 126.528C124.359 126.528 122.322 124.578 122.322 120.085V79.5998L119.691 81.4021H119.705Z" fill="white"/>
<path d="M161.365 117.085C156.697 109.808 156.481 99.5459 156.481 95.04C156.481 84.3201 158.505 77.5681 161.513 72.847C165.574 66.5523 172.198 63.6201 178.889 63.6201C185.581 63.6201 192.205 66.4716 196.266 72.847C200.853 80.0429 201.298 89.7944 201.298 95.04C201.298 104.563 199.719 111.839 196.333 117.152C191.139 125.169 183.476 126.527 178.889 126.527C174.302 126.527 166.707 125.33 161.365 117.085ZM187.308 95.04C187.308 84.0915 185.122 76.4517 178.889 76.4517C172.198 76.4517 170.471 85.154 170.471 95.1207C170.471 105.841 172.576 113.709 178.889 113.709C185.203 113.709 187.308 105.168 187.308 95.04Z" fill="white"/>
</g>
<g filter="url(#filter4_d_2001_23703)">
<path d="M238.452 120.864C238.452 124.899 236.536 125.962 233.379 125.962H214.64C211.443 125.962 209.527 124.899 209.527 120.864V98.4426C209.527 94.4479 211.443 93.3718 214.64 93.3718H233.379C236.55 93.3718 238.452 94.4344 238.452 98.4426V120.864ZM231.976 106.486V100.393C231.976 99.5859 231.356 99.3707 230.951 99.3707H217.069C216.151 99.3707 216.043 100.07 216.043 100.393V106.486H231.976ZM216.043 112.323V118.927C216.043 119.291 216.192 119.95 217.069 119.95H230.951C231.315 119.95 231.976 119.761 231.976 118.927V112.323H216.043Z" fill="white"/>
</g>
<g filter="url(#filter5_d_2001_23703)">
<path d="M353.516 95.2821C353.516 96.6271 352.936 97.5821 351.209 99.1155C348.2 101.671 343.398 104.348 336.679 104.348C331.688 104.348 330.082 103.581 321.961 99.4383C317.09 96.95 315.431 96.2505 312.301 96.2505C308.402 96.2505 305.259 97.7166 302.831 99.8283C301.684 100.851 301.293 101.173 300.078 101.173C297.65 101.173 295.788 99.0616 295.788 96.8962C295.788 95.4301 296.746 93.8967 299.687 91.7985C303.586 89.0546 308.2 87.7769 312.611 87.7769C317.994 87.7769 320.099 88.8663 328.099 93.009C331.944 94.9862 333.671 95.8739 336.936 95.8739C340.012 95.8739 343.33 94.919 345.516 93.009C347.31 91.4084 348.012 90.9646 349.037 90.9646C351.722 90.9646 353.516 93.0763 353.516 95.309V95.2821Z" fill="white"/>
</g>
<g filter="url(#filter6_d_2001_23703)">
<path d="M57.9301 196.441C60.6417 196.441 64.5541 197.047 64.5541 202.817C64.5541 207.161 62.5305 209.26 57.9301 209.26H29.2079C23.6497 209.26 18.2263 209.26 18.2263 201.983C18.2263 197.41 19.9532 195.984 25.8217 191.411C29.8015 188.264 36.2772 182.641 40.7157 178.216C45.1542 173.872 47.6365 171.02 47.6365 167.268C47.6365 164.268 45.5319 160.368 40.945 160.368C37.7881 160.368 34.6987 161.645 32.5941 163.219C29.5857 165.546 29.0595 165.923 27.3327 165.923C23.1235 165.923 20.5602 162.318 20.5602 159.171C20.5602 154.745 29.4373 147.55 40.945 147.55C53.2757 147.55 61.6266 155.566 61.6266 166.824C61.6266 175.889 56.7429 181.74 39.0698 196.441H57.9436H57.9301Z" fill="white"/>
</g>
<g filter="url(#filter7_d_2001_23703)">
<path d="M82.6992 200.033C82.3619 203.301 81.9976 205.359 80.9319 207.78C79.6772 210.685 78.7194 211.156 77.2488 211.156C75.2927 211.156 73.377 209.865 73.377 208.224C73.377 207.377 73.6738 206.798 74.4023 205.547C75.576 203.53 77.087 200.961 77.087 192.783V182.292C77.087 178.257 79.0431 177.194 82.1595 177.194H98.9827C102.153 177.194 104.096 178.257 104.096 182.292V205.709C104.096 210.887 101.182 210.887 96.0012 210.887C94.8545 210.887 92.5071 210.887 91.6571 210.591C90.0382 210.08 89.7009 208.533 89.7009 207.471C89.7009 204.431 91.7246 204.431 92.6824 204.431C93.1951 204.431 95.4481 204.539 95.8798 204.539C97.0535 204.539 97.755 204.471 97.755 203.436V200.06H82.6587L82.6992 200.033ZM97.782 185.937V184.323C97.782 183.664 97.4178 183.301 96.7567 183.301H84.2371C83.5356 183.301 83.2118 183.704 83.2118 184.323V185.937H97.782ZM83.2118 191.546V194.37H97.782V191.546H83.2118Z" fill="white"/>
</g>
<g filter="url(#filter8_d_2001_23703)">
<path d="M152.758 196.441C155.47 196.441 159.382 197.047 159.382 202.817C159.382 207.161 157.358 209.26 152.758 209.26H124.036C118.478 209.26 113.054 209.26 113.054 201.983C113.054 197.41 114.781 195.984 120.65 191.411C124.629 188.264 131.105 182.641 135.544 178.216C139.982 173.872 142.464 171.02 142.464 167.268C142.464 164.268 140.36 160.368 135.773 160.368C132.616 160.368 129.527 161.645 127.422 163.219C124.414 165.546 123.887 165.923 122.161 165.923C117.951 165.923 115.388 162.318 115.388 159.171C115.388 154.745 124.265 147.55 135.773 147.55C148.104 147.55 156.454 155.566 156.454 166.824C156.454 175.889 151.571 181.74 133.898 196.441H152.771H152.758Z" fill="white"/>
</g>
<g filter="url(#filter9_d_2001_23703)">
<path d="M199.396 204.794C199.396 208.829 197.48 209.892 194.323 209.892H175.584C172.387 209.892 170.471 208.829 170.471 204.794V182.373C170.471 178.378 172.387 177.302 175.584 177.302H194.323C197.494 177.302 199.396 178.365 199.396 182.373V204.794ZM192.92 190.416V184.323C192.92 183.516 192.3 183.301 191.895 183.301H178.013C177.095 183.301 176.988 184 176.988 184.323V190.416H192.92ZM176.974 196.253V202.858C176.974 203.221 177.122 203.88 177.999 203.88H191.882C192.246 203.88 192.907 203.691 192.907 202.858V196.253H176.974Z" fill="white"/>
</g>
<g filter="url(#filter10_d_2001_23703)">
<path d="M283.781 110.346C283.781 120.878 275.215 129.405 264.665 129.405C254.115 129.405 245.548 120.865 245.548 110.346C245.548 99.8283 254.115 91.2874 264.665 91.2874C275.215 91.2874 283.781 99.8283 283.781 110.346Z" fill="white"/>
</g>
<path d="M259.133 108.624C257.811 108.624 257.434 108.019 257.407 107.158C256.611 107.562 255.397 108.194 254.749 108.194C253.67 108.194 252.995 106.943 252.995 105.961C252.995 104.885 253.832 104.522 254.317 104.334C257.272 103.137 258.108 102.801 260.941 100.675C262.574 99.4379 262.938 99.1689 264.489 99.1689C265.933 99.1689 266.176 99.3572 268.24 100.864C269.319 101.657 271.329 103.11 274.405 104.361C275.026 104.603 275.727 104.885 275.727 105.921C275.727 106.836 275.147 108.221 273.852 108.221C273.393 108.221 272.867 108.06 271.235 107.199C271.181 107.844 271.019 108.638 269.508 108.638H266.054V110.212H273.11C274.459 110.212 274.864 110.817 274.864 112.027C274.864 113.561 273.636 113.601 273.11 113.601H271.41C272.22 113.937 272.328 114.462 272.328 114.704C272.328 115.282 271.491 117.502 270.938 117.986H273.623C274.945 117.986 275.377 118.591 275.377 119.802C275.377 121.335 274.176 121.375 273.623 121.375H254.951C253.602 121.375 253.171 120.784 253.171 119.56C253.171 118.026 254.412 117.986 254.951 117.986H257.636C257.542 117.919 257.447 117.824 257.353 117.65C257.299 117.555 256.827 116.479 256.746 116.332C256.26 115.202 256.219 115.094 256.219 114.771C256.219 114.005 256.961 113.722 257.231 113.601H255.477C254.155 113.601 253.724 113.009 253.724 111.785C253.724 110.252 254.992 110.212 255.477 110.212H262.506V108.638H259.147L259.133 108.624ZM259.201 113.601C259.484 113.763 259.633 113.937 260.037 114.892C260.429 115.82 260.712 116.493 260.712 117.071C260.712 117.65 260.348 117.838 260.118 117.986H262.493V113.601H259.201ZM268.253 105.343C267.12 104.549 266.068 103.782 264.84 102.585C264.597 102.37 264.557 102.276 264.381 102.276C264.193 102.276 264.044 102.424 263.923 102.558C262.884 103.608 261.737 104.522 260.537 105.329H268.24L268.253 105.343ZM268.429 117.986C268.24 117.865 267.754 117.582 267.754 116.937C267.754 116.627 267.849 116.439 268.024 116.049C268.078 115.955 268.402 115.282 268.523 114.946C268.833 114.112 268.928 113.843 269.292 113.601H266.054V117.986H268.429Z" fill="#230A34"/>
<g filter="url(#filter11_d_2001_23703)">
<path d="M245.4 194.276C245.4 204.808 236.833 213.335 226.283 213.335C215.733 213.335 207.167 204.794 207.167 194.276C207.167 183.758 215.733 175.217 226.283 175.217C236.833 175.217 245.4 183.758 245.4 194.276Z" fill="white"/>
</g>
<path d="M235.282 202.037C235.282 204.579 234.135 205.319 232.017 205.319H219.942C217.811 205.319 216.651 204.579 216.651 202.037V187.47C216.651 184.928 217.797 184.215 219.942 184.215H232.017C234.108 184.215 235.282 184.915 235.282 187.47V202.037ZM231.437 192.837V188.56C231.437 187.981 231.072 187.753 230.627 187.753H221.292C220.684 187.753 220.496 188.129 220.496 188.56V192.837H231.437ZM220.496 196.307V200.947C220.496 201.338 220.657 201.768 221.292 201.768H230.627C231.113 201.768 231.437 201.499 231.437 200.947V196.307H220.496Z" fill="#230A34"/>
<defs>
<filter id="filter0_d_2001_23703" x="4.27213" y="4.16544" width="162.481" height="61.6916" filterUnits="userSpaceOnUse" color-interpolation-filters="sRGB">
<feFlood flood-opacity="0" result="BackgroundImageFix"/>
<feColorMatrix in="SourceAlpha" type="matrix" values="0 0 0 0 0 0 0 0 0 0 0 0 0 0 0 0 0 0 127 0" result="hardAlpha"/>
<feOffset/>
<feGaussianBlur stdDeviation="6.62639"/>
<feColorMatrix type="matrix" values="0 0 0 0 0 0 0 0 0 0 0 0 0 0 0 0 0 0 0.8 0"/>
<feBlend mode="normal" in2="BackgroundImageFix" result="effect1_dropShadow_2001_23703"/>
<feBlend mode="normal" in="SourceGraphic" in2="effect1_dropShadow_2001_23703" result="shape"/>
</filter>
<filter id="filter1_d_2001_23703" x="7.37491" y="50.3808" width="52.9611" height="89.3991" filterUnits="userSpaceOnUse" color-interpolation-filters="sRGB">
<feFlood flood-opacity="0" result="BackgroundImageFix"/>
<feColorMatrix in="SourceAlpha" type="matrix" values="0 0 0 0 0 0 0 0 0 0 0 0 0 0 0 0 0 0 127 0" result="hardAlpha"/>
<feOffset/>
<feGaussianBlur stdDeviation="6.62639"/>
<feColorMatrix type="matrix" values="0 0 0 0 0 0 0 0 0 0 0 0 0 0 0 0 0 0 0.8 0"/>
<feBlend mode="normal" in2="BackgroundImageFix" result="effect1_dropShadow_2001_23703"/>
<feBlend mode="normal" in="SourceGraphic" in2="effect1_dropShadow_2001_23703" result="shape"/>
</filter>
<filter id="filter2_d_2001_23703" x="53.2711" y="80.0119" width="57.2243" height="60.4675" filterUnits="userSpaceOnUse" color-interpolation-filters="sRGB">
<feFlood flood-opacity="0" result="BackgroundImageFix"/>
<feColorMatrix in="SourceAlpha" type="matrix" values="0 0 0 0 0 0 0 0 0 0 0 0 0 0 0 0 0 0 127 0" result="hardAlpha"/>
<feOffset/>
<feGaussianBlur stdDeviation="6.62639"/>
<feColorMatrix type="matrix" values="0 0 0 0 0 0 0 0 0 0 0 0 0 0 0 0 0 0 0.8 0"/>
<feBlend mode="normal" in2="BackgroundImageFix" result="effect1_dropShadow_2001_23703"/>
<feBlend mode="normal" in="SourceGraphic" in2="effect1_dropShadow_2001_23703" result="shape"/>
</filter>
<filter id="filter3_d_2001_23703" x="96.6037" y="50.3673" width="117.947" height="89.4133" filterUnits="userSpaceOnUse" color-interpolation-filters="sRGB">
<feFlood flood-opacity="0" result="BackgroundImageFix"/>
<feColorMatrix in="SourceAlpha" type="matrix" values="0 0 0 0 0 0 0 0 0 0 0 0 0 0 0 0 0 0 127 0" result="hardAlpha"/>
<feOffset/>
<feGaussianBlur stdDeviation="6.62639"/>
<feColorMatrix type="matrix" values="0 0 0 0 0 0 0 0 0 0 0 0 0 0 0 0 0 0 0.8 0"/>
<feBlend mode="normal" in2="BackgroundImageFix" result="effect1_dropShadow_2001_23703"/>
<feBlend mode="normal" in="SourceGraphic" in2="effect1_dropShadow_2001_23703" result="shape"/>
</filter>
<filter id="filter4_d_2001_23703" x="196.275" y="80.119" width="55.4301" height="59.0956" filterUnits="userSpaceOnUse" color-interpolation-filters="sRGB">
<feFlood flood-opacity="0" result="BackgroundImageFix"/>
<feColorMatrix in="SourceAlpha" type="matrix" values="0 0 0 0 0 0 0 0 0 0 0 0 0 0 0 0 0 0 127 0" result="hardAlpha"/>
<feOffset/>
<feGaussianBlur stdDeviation="6.62639"/>
<feColorMatrix type="matrix" values="0 0 0 0 0 0 0 0 0 0 0 0 0 0 0 0 0 0 0.8 0"/>
<feBlend mode="normal" in2="BackgroundImageFix" result="effect1_dropShadow_2001_23703"/>
<feBlend mode="normal" in="SourceGraphic" in2="effect1_dropShadow_2001_23703" result="shape"/>
</filter>
<filter id="filter5_d_2001_23703" x="282.536" y="74.5241" width="84.2331" height="43.0764" filterUnits="userSpaceOnUse" color-interpolation-filters="sRGB">
<feFlood flood-opacity="0" result="BackgroundImageFix"/>
<feColorMatrix in="SourceAlpha" type="matrix" values="0 0 0 0 0 0 0 0 0 0 0 0 0 0 0 0 0 0 127 0" result="hardAlpha"/>
<feOffset/>
<feGaussianBlur stdDeviation="6.62639"/>
<feColorMatrix type="matrix" values="0 0 0 0 0 0 0 0 0 0 0 0 0 0 0 0 0 0 0.8 0"/>
<feBlend mode="normal" in2="BackgroundImageFix" result="effect1_dropShadow_2001_23703"/>
<feBlend mode="normal" in="SourceGraphic" in2="effect1_dropShadow_2001_23703" result="shape"/>
</filter>
<filter id="filter6_d_2001_23703" x="4.97354" y="134.297" width="72.8334" height="88.2155" filterUnits="userSpaceOnUse" color-interpolation-filters="sRGB">
<feFlood flood-opacity="0" result="BackgroundImageFix"/>
<feColorMatrix in="SourceAlpha" type="matrix" values="0 0 0 0 0 0 0 0 0 0 0 0 0 0 0 0 0 0 127 0" result="hardAlpha"/>
<feOffset/>
<feGaussianBlur stdDeviation="6.62639"/>
<feColorMatrix type="matrix" values="0 0 0 0 0 0 0 0 0 0 0 0 0 0 0 0 0 0 0.8 0"/>
<feBlend mode="normal" in2="BackgroundImageFix" result="effect1_dropShadow_2001_23703"/>
<feBlend mode="normal" in="SourceGraphic" in2="effect1_dropShadow_2001_23703" result="shape"/>
</filter>
<filter id="filter7_d_2001_23703" x="60.1242" y="163.941" width="57.2243" height="60.4675" filterUnits="userSpaceOnUse" color-interpolation-filters="sRGB">
<feFlood flood-opacity="0" result="BackgroundImageFix"/>
<feColorMatrix in="SourceAlpha" type="matrix" values="0 0 0 0 0 0 0 0 0 0 0 0 0 0 0 0 0 0 127 0" result="hardAlpha"/>
<feOffset/>
<feGaussianBlur stdDeviation="6.62639"/>
<feColorMatrix type="matrix" values="0 0 0 0 0 0 0 0 0 0 0 0 0 0 0 0 0 0 0.8 0"/>
<feBlend mode="normal" in2="BackgroundImageFix" result="effect1_dropShadow_2001_23703"/>
<feBlend mode="normal" in="SourceGraphic" in2="effect1_dropShadow_2001_23703" result="shape"/>
</filter>
<filter id="filter8_d_2001_23703" x="99.8014" y="134.297" width="72.8334" height="88.2155" filterUnits="userSpaceOnUse" color-interpolation-filters="sRGB">
<feFlood flood-opacity="0" result="BackgroundImageFix"/>
<feColorMatrix in="SourceAlpha" type="matrix" values="0 0 0 0 0 0 0 0 0 0 0 0 0 0 0 0 0 0 127 0" result="hardAlpha"/>
<feOffset/>
<feGaussianBlur stdDeviation="6.62639"/>
<feColorMatrix type="matrix" values="0 0 0 0 0 0 0 0 0 0 0 0 0 0 0 0 0 0 0.8 0"/>
<feBlend mode="normal" in2="BackgroundImageFix" result="effect1_dropShadow_2001_23703"/>
<feBlend mode="normal" in="SourceGraphic" in2="effect1_dropShadow_2001_23703" result="shape"/>
</filter>
<filter id="filter9_d_2001_23703" x="157.219" y="164.049" width="55.4301" height="59.0956" filterUnits="userSpaceOnUse" color-interpolation-filters="sRGB">
<feFlood flood-opacity="0" result="BackgroundImageFix"/>
<feColorMatrix in="SourceAlpha" type="matrix" values="0 0 0 0 0 0 0 0 0 0 0 0 0 0 0 0 0 0 127 0" result="hardAlpha"/>
<feOffset/>
<feGaussianBlur stdDeviation="6.62639"/>
<feColorMatrix type="matrix" values="0 0 0 0 0 0 0 0 0 0 0 0 0 0 0 0 0 0 0.8 0"/>
<feBlend mode="normal" in2="BackgroundImageFix" result="effect1_dropShadow_2001_23703"/>
<feBlend mode="normal" in="SourceGraphic" in2="effect1_dropShadow_2001_23703" result="shape"/>
</filter>
<filter id="filter10_d_2001_23703" x="232.295" y="78.0346" width="64.7387" height="64.6237" filterUnits="userSpaceOnUse" color-interpolation-filters="sRGB">
<feFlood flood-opacity="0" result="BackgroundImageFix"/>
<feColorMatrix in="SourceAlpha" type="matrix" values="0 0 0 0 0 0 0 0 0 0 0 0 0 0 0 0 0 0 127 0" result="hardAlpha"/>
<feOffset/>
<feGaussianBlur stdDeviation="6.62639"/>
<feColorMatrix type="matrix" values="0 0 0 0 0 0 0 0 0 0 0 0 0 0 0 0 0 0 0.8 0"/>
<feBlend mode="normal" in2="BackgroundImageFix" result="effect1_dropShadow_2001_23703"/>
<feBlend mode="normal" in="SourceGraphic" in2="effect1_dropShadow_2001_23703" result="shape"/>
</filter>
<filter id="filter11_d_2001_23703" x="193.914" y="161.964" width="64.7387" height="64.6237" filterUnits="userSpaceOnUse" color-interpolation-filters="sRGB">
<feFlood flood-opacity="0" result="BackgroundImageFix"/>
<feColorMatrix in="SourceAlpha" type="matrix" values="0 0 0 0 0 0 0 0 0 0 0 0 0 0 0 0 0 0 127 0" result="hardAlpha"/>
<feOffset/>
<feGaussianBlur stdDeviation="6.62639"/>
<feColorMatrix type="matrix" values="0 0 0 0 0 0 0 0 0 0 0 0 0 0 0 0 0 0 0.8 0"/>
<feBlend mode="normal" in2="BackgroundImageFix" result="effect1_dropShadow_2001_23703"/>
<feBlend mode="normal" in="SourceGraphic" in2="effect1_dropShadow_2001_23703" result="shape"/>
</filter>
</defs>
</svg>
