<svg width="406" height="73" viewBox="0 0 406 73" fill="none" xmlns="http://www.w3.org/2000/svg">
<g clip-path="url(#clip0_2188_22903)">
<g filter="url(#filter0_d_2188_22903)">
<path d="M115.62 10.2521C115.314 10.4768 114.778 10.8397 114.22 10.8397C113.158 10.8397 112.259 9.49595 112.259 8.57129C112.259 7.81515 112.877 7.39604 113.464 6.9726L116.882 4.648C117.357 4.34123 118.088 3.83569 119.15 3.83569C121.7 3.83569 121.7 5.85351 121.7 6.6399V25.0508C121.7 26.0057 121.449 27.2631 119.345 27.2631C117.414 27.2631 116.934 26.3384 116.934 25.0508V9.35768L115.616 10.2564L115.62 10.2521Z" fill="white"/>
<path d="M128.09 8.1782C128.09 6.52333 128.341 4.28516 131.815 4.28516H139.467C140.279 4.28516 141.709 4.45367 141.709 6.44124C141.709 7.98376 140.953 8.65349 139.467 8.65349H133.331C132.714 8.65349 132.463 8.822 132.463 9.52197V12.4083C133.5 12.1274 134.23 11.933 135.319 11.933C139.156 11.933 143.109 14.4002 143.109 19.4166C143.109 23.5343 140.249 27.2632 134.031 27.2632C132.714 27.2632 130.251 27.0385 128.371 26.2262C127.364 25.8071 126.941 25.2756 126.941 24.2948C126.941 23.0072 127.809 21.9702 128.816 21.9702C129.179 21.9702 129.322 22.0264 130.497 22.3893C131.253 22.614 132.234 22.8949 133.776 22.8949C134.45 22.8949 138.344 22.8949 138.344 19.4771C138.344 17.6278 137.026 16.31 134.839 16.31C133.439 16.31 132.796 16.8155 132.009 17.4031C131.983 17.429 131.279 17.9648 130.246 17.9648C128.09 17.9648 128.09 16.3661 128.09 15.5538V8.18252V8.1782Z" fill="white"/>
<path d="M154.261 10.1397C154.261 11.7643 152.943 12.9439 151.457 12.9439C149.971 12.9439 148.653 11.7125 148.653 10.1397C148.653 8.56692 149.94 7.33982 151.457 7.30957C152.913 7.30957 154.261 8.48483 154.261 10.1397ZM154.261 22.1904C154.261 23.7891 152.974 24.9946 151.457 24.9946C149.94 24.9946 148.653 23.7632 148.653 22.1904C148.653 20.6176 149.94 19.3862 151.457 19.3862C152.974 19.3862 154.261 20.5615 154.261 22.1904Z" fill="white"/>
<path d="M159.779 15.5494C159.779 11.5138 160.535 8.99473 161.654 7.22752C163.11 4.92886 165.547 3.83569 168.015 3.83569C170.482 3.83569 172.863 4.89861 174.375 7.25345C176.056 9.88914 176.224 13.5575 176.224 15.5494C176.224 19.0536 175.662 21.8275 174.401 23.8151C172.526 26.7576 169.695 27.2631 168.01 27.2631C159.771 27.2631 159.771 17.511 159.771 15.5494H159.779ZM171.493 15.5494C171.493 10.8959 170.456 8.20835 168.019 8.20835C165.357 8.20835 164.545 11.3755 164.545 15.5494C164.545 20.0862 165.5 22.8904 168.019 22.8904C170.538 22.8904 171.493 19.7233 171.493 15.5494Z" fill="white"/>
<path d="M178.942 15.5494C178.942 11.5138 179.698 8.99473 180.821 7.22752C182.278 4.92886 184.714 3.83569 187.182 3.83569C189.649 3.83569 192.03 4.89861 193.542 7.25345C195.223 9.88914 195.391 13.5575 195.391 15.5494C195.391 19.0536 194.829 21.8275 193.572 23.8151C191.697 26.7576 188.867 27.2631 187.182 27.2631C178.942 27.2631 178.942 17.511 178.942 15.5494ZM190.656 15.5494C190.656 10.8959 189.619 8.20835 187.182 8.20835C184.52 8.20835 183.708 11.3755 183.708 15.5494C183.708 20.0862 184.663 22.8904 187.182 22.8904C189.701 22.8904 190.656 19.7233 190.656 15.5494Z" fill="white"/>
<path d="M223.437 15.7438C223.437 16.2493 223.243 16.6684 222.456 17.3684C221.42 18.2671 219.32 19.693 216.122 19.693C213.936 19.693 213.262 19.356 209.732 17.5067C207.632 16.4135 206.789 16.0506 205.389 16.0506C203.034 16.0506 201.635 17.2258 201.159 17.6493C200.598 18.1807 200.459 18.2931 199.954 18.2931C199.029 18.2931 198.217 17.5628 198.217 16.582C198.217 16.1888 198.243 15.6012 199.841 14.4259C201.328 13.363 203.315 12.6328 205.528 12.6328C207.882 12.6328 208.889 13.1945 212.251 14.9574C213.962 15.8561 214.718 16.245 216.2 16.245C217.431 16.245 219.004 15.908 220.179 14.871C221.022 14.1408 221.186 14.0025 221.636 14.0025C222.698 14.0025 223.429 14.8451 223.429 15.7395L223.437 15.7438Z" fill="white"/>
<path d="M237.644 22.441C238.569 22.441 239.887 22.6657 239.887 24.5971C239.887 26.0834 239.213 26.8093 237.644 26.8093H226.799C224.92 26.8093 222.932 26.8093 222.932 24.286C222.932 22.6614 223.606 22.1299 225.65 20.5053C227.249 19.2436 229.742 17.0011 231.366 15.4067C232.991 13.7821 234.028 12.6025 234.028 11.0643C234.028 9.69031 233.047 8.20395 231.28 8.20395C230.831 8.20395 229.431 8.28605 227.974 9.43538C226.912 10.2477 226.743 10.3903 226.125 10.3903C224.695 10.3903 223.827 9.18477 223.827 8.09161C223.827 6.52316 227.076 3.8313 231.28 3.8313C235.484 3.8313 238.789 6.60525 238.789 10.8915C238.789 14.4518 236.715 16.6641 229.88 22.4367H237.64L237.644 22.441Z" fill="white"/>
<path d="M245.517 10.2521C245.21 10.4768 244.674 10.8397 244.117 10.8397C243.054 10.8397 242.155 9.49595 242.155 8.57129C242.155 7.81515 242.773 7.39604 243.361 6.9726L246.779 4.648C247.254 4.34123 247.984 3.83569 249.047 3.83569C251.596 3.83569 251.596 5.85351 251.596 6.6399V25.0508C251.596 26.0057 251.346 27.2631 249.241 27.2631C247.31 27.2631 246.83 26.3384 246.83 25.0508V9.35768L245.513 10.2564L245.517 10.2521Z" fill="white"/>
<path d="M267.821 10.1397C267.821 11.7643 266.503 12.9439 265.017 12.9439C263.53 12.9439 262.212 11.7125 262.212 10.1397C262.212 8.56692 263.5 7.33982 265.017 7.30957C266.473 7.30957 267.821 8.48483 267.821 10.1397ZM267.821 22.1904C267.821 23.7891 266.533 24.9946 265.017 24.9946C263.5 24.9946 262.212 23.7632 262.212 22.1904C262.212 20.6176 263.5 19.3862 265.017 19.3862C266.533 19.3862 267.821 20.5615 267.821 22.1904Z" fill="white"/>
<path d="M273.338 15.5494C273.338 11.5138 274.095 8.99473 275.214 7.22752C276.67 4.92886 279.107 3.83569 281.574 3.83569C284.041 3.83569 286.422 4.89861 287.934 7.25345C289.615 9.88914 289.783 13.5575 289.783 15.5494C289.783 19.0536 289.222 21.8275 287.96 23.8151C286.085 26.7576 283.255 27.2631 281.57 27.2631C273.33 27.2631 273.33 17.511 273.33 15.5494H273.338ZM285.052 15.5494C285.052 10.8959 284.015 8.20835 281.578 8.20835C278.917 8.20835 278.104 11.3755 278.104 15.5494C278.104 20.0862 279.059 22.8904 281.578 22.8904C284.097 22.8904 285.052 19.7233 285.052 15.5494Z" fill="white"/>
<path d="M292.501 15.5494C292.501 11.5138 293.257 8.99473 294.381 7.22752C295.837 4.92886 298.274 3.83569 300.741 3.83569C303.208 3.83569 305.589 4.89861 307.101 7.25345C308.782 9.88914 308.951 13.5575 308.951 15.5494C308.951 19.0536 308.389 21.8275 307.131 23.8151C305.256 26.7576 302.426 27.2631 300.741 27.2631C292.501 27.2631 292.501 17.511 292.501 15.5494ZM304.215 15.5494C304.215 10.8959 303.178 8.20835 300.741 8.20835C298.079 8.20835 297.267 11.3755 297.267 15.5494C297.267 20.0862 298.222 22.8904 300.741 22.8904C303.26 22.8904 304.215 19.7233 304.215 15.5494Z" fill="white"/>
</g>
<g filter="url(#filter1_d_2188_22903)">
<path d="M118.442 52.1857C118.135 52.4104 117.599 52.7733 117.042 52.7733C115.979 52.7733 115.08 51.4295 115.08 50.5049C115.08 49.7487 115.698 49.3296 116.286 48.9062L119.704 46.5816C120.179 46.2748 120.909 45.7693 121.972 45.7693C124.521 45.7693 124.521 47.7871 124.521 48.5735V66.9844C124.521 67.9393 124.271 69.1967 122.166 69.1967C120.235 69.1967 119.755 68.272 119.755 66.9844V51.2913L118.438 52.19L118.442 52.1857Z" fill="white"/>
<path d="M133.292 52.1854C132.986 52.4101 132.45 52.7731 131.893 52.7731C130.83 52.7731 129.931 51.4293 129.931 50.5046C129.931 49.7485 130.549 49.3294 131.136 48.9059L134.554 46.5814C135.029 46.2746 135.76 45.769 136.823 45.769C139.372 45.769 139.372 47.7869 139.372 48.5732V66.9842C139.372 67.9391 139.121 69.1964 137.017 69.1964C135.086 69.1964 134.606 68.2718 134.606 66.9842V51.291L133.288 52.1898L133.292 52.1854Z" fill="white"/>
<path d="M155.592 52.073C155.592 53.6977 154.274 54.8772 152.788 54.8772C151.301 54.8772 149.984 53.6458 149.984 52.073C149.984 50.5003 151.271 49.2732 152.788 49.2429C154.244 49.2429 155.592 50.4182 155.592 52.073ZM155.592 64.1238C155.592 65.7225 154.304 66.928 152.788 66.928C151.271 66.928 149.984 65.6965 149.984 64.1238C149.984 62.551 151.271 61.3196 152.788 61.3196C154.304 61.3196 155.592 62.4948 155.592 64.1238Z" fill="white"/>
<path d="M161.114 57.4827C161.114 53.4471 161.87 50.9281 162.989 49.1609C164.445 46.8622 166.882 45.769 169.35 45.769C171.817 45.769 174.198 46.832 175.71 49.1868C177.391 51.8225 177.559 55.4908 177.559 57.4827C177.559 60.9869 176.997 63.7609 175.736 65.7484C173.86 68.6909 171.03 69.1964 169.345 69.1964C161.105 69.1964 161.105 59.4444 161.105 57.4827H161.114ZM172.823 57.4827C172.823 52.8292 171.787 50.1417 169.35 50.1417C166.688 50.1417 165.876 53.3088 165.876 57.4827C165.876 62.0196 166.831 64.8238 169.35 64.8238C171.869 64.8238 172.823 61.6566 172.823 57.4827Z" fill="white"/>
<path d="M180.277 57.4827C180.277 53.4471 181.033 50.9281 182.152 49.1609C183.608 46.8622 186.045 45.769 188.512 45.769C190.98 45.769 193.36 46.832 194.873 49.1868C196.553 51.8225 196.722 55.4908 196.722 57.4827C196.722 60.9869 196.16 63.7609 194.903 65.7484C193.028 68.6909 190.198 69.1964 188.512 69.1964C180.273 69.1964 180.273 59.4444 180.273 57.4827H180.277ZM191.991 57.4827C191.991 52.8292 190.954 50.1417 188.517 50.1417C185.855 50.1417 185.043 53.3088 185.043 57.4827C185.043 62.0196 185.998 64.8238 188.517 64.8238C191.036 64.8238 191.991 61.6566 191.991 57.4827Z" fill="white"/>
<path d="M224.773 57.6771C224.773 58.1827 224.578 58.6018 223.792 59.3018C222.755 60.2005 220.655 61.6264 217.457 61.6264C215.271 61.6264 214.597 61.2893 211.067 59.44C208.967 58.3469 208.124 57.9839 206.725 57.9839C204.37 57.9839 202.97 59.1592 202.494 59.5826C201.933 60.1141 201.794 60.2264 201.289 60.2264C200.364 60.2264 199.552 59.4962 199.552 58.5154C199.552 58.1222 199.582 57.5346 201.177 56.3593C202.663 55.2964 204.651 54.5662 206.863 54.5662C209.218 54.5662 210.224 55.1279 213.586 56.8908C215.297 57.7895 216.053 58.1784 217.535 58.1784C218.767 58.1784 220.339 57.8413 221.515 56.8043C222.357 56.0741 222.521 55.9359 222.971 55.9359C224.034 55.9359 224.764 56.7784 224.764 57.6728L224.773 57.6771Z" fill="white"/>
<path d="M238.979 64.3746C239.904 64.3746 241.222 64.5993 241.222 66.5307C241.222 68.017 240.548 68.7429 238.979 68.7429H228.134C226.259 68.7429 224.267 68.7429 224.267 66.2196C224.267 64.595 224.941 64.0635 226.985 62.4389C228.584 61.1772 231.077 58.9347 232.701 57.3403C234.326 55.7157 235.363 54.5361 235.363 52.9979C235.363 51.6239 234.382 50.1375 232.615 50.1375C232.166 50.1375 230.766 50.2196 229.309 51.369C228.247 52.1813 228.078 52.3239 227.46 52.3239C226.03 52.3239 225.161 51.1184 225.161 50.0252C225.161 48.4568 228.411 45.7649 232.615 45.7649C236.819 45.7649 240.124 48.5388 240.124 52.8251C240.124 56.3854 238.05 58.5977 231.215 64.3703H238.975L238.979 64.3746Z" fill="white"/>
<path d="M246.852 52.1854C246.545 52.4101 246.009 52.7731 245.452 52.7731C244.389 52.7731 243.49 51.4293 243.49 50.5046C243.49 49.7485 244.108 49.3294 244.696 48.9059L248.113 46.5814C248.589 46.2746 249.319 45.769 250.382 45.769C252.931 45.769 252.931 47.7869 252.931 48.5732V66.9842C252.931 67.9391 252.681 69.1964 250.576 69.1964C248.645 69.1964 248.165 68.2718 248.165 66.9842V51.291L246.847 52.1898L246.852 52.1854Z" fill="white"/>
<path d="M269.156 52.073C269.156 53.6977 267.838 54.8772 266.352 54.8772C264.865 54.8772 263.547 53.6458 263.547 52.073C263.547 50.5003 264.835 49.2732 266.352 49.2429C267.808 49.2429 269.156 50.4182 269.156 52.073ZM269.156 64.1238C269.156 65.7225 267.868 66.928 266.352 66.928C264.835 66.928 263.547 65.6965 263.547 64.1238C263.547 62.551 264.835 61.3196 266.352 61.3196C267.868 61.3196 269.156 62.4948 269.156 64.1238Z" fill="white"/>
<path d="M274.673 57.4827C274.673 53.4471 275.43 50.9281 276.549 49.1609C278.005 46.8622 280.442 45.769 282.909 45.769C285.376 45.769 287.757 46.832 289.269 49.1868C290.95 51.8225 291.118 55.4908 291.118 57.4827C291.118 60.9869 290.557 63.7609 289.295 65.7484C287.42 68.6909 284.59 69.1964 282.905 69.1964C274.665 69.1964 274.665 59.4444 274.665 57.4827H274.673ZM286.383 57.4827C286.383 52.8292 285.346 50.1417 282.909 50.1417C280.247 50.1417 279.435 53.3088 279.435 57.4827C279.435 62.0196 280.39 64.8238 282.909 64.8238C285.428 64.8238 286.383 61.6566 286.383 57.4827Z" fill="white"/>
<path d="M293.836 57.4827C293.836 53.4471 294.593 50.9281 295.712 49.1609C297.168 46.8622 299.605 45.769 302.072 45.769C304.539 45.769 306.92 46.832 308.432 49.1868C310.113 51.8225 310.281 55.4908 310.281 57.4827C310.281 60.9869 309.72 63.7609 308.462 65.7484C306.587 68.6909 303.757 69.1964 302.072 69.1964C293.832 69.1964 293.832 59.4444 293.832 57.4827H293.836ZM305.55 57.4827C305.55 52.8292 304.513 50.1417 302.076 50.1417C299.415 50.1417 298.602 53.3088 298.602 57.4827C298.602 62.0196 299.557 64.8238 302.076 64.8238C304.595 64.8238 305.55 61.6566 305.55 57.4827Z" fill="white"/>
</g>
<g filter="url(#filter2_d_2188_22903)">
<path d="M319.087 23.7156C319.39 24.2169 319.472 24.3508 319.472 24.6014C319.472 24.9687 319.156 25.4353 318.603 25.4353C318.171 25.4353 317.938 25.202 317.601 24.7699C316.417 23.1669 315.181 20.6954 315.181 17.39C315.181 14.6852 316.032 11.9976 317.717 9.87611C317.968 9.54341 318.184 9.34033 318.603 9.34033C319.156 9.34033 319.472 9.80698 319.472 10.1742C319.472 10.4249 319.39 10.5415 319.087 11.06C317.886 13.1297 317.385 15.1821 317.385 17.3857C317.385 19.5893 317.886 21.6417 319.087 23.7113V23.7156Z" fill="white"/>
<path d="M323.827 23.7327C321.541 23.7327 321.541 22.2118 321.541 21.4125V11.3623C321.541 10.5111 321.943 10.0444 322.945 10.0444C323.948 10.0444 324.38 10.4117 324.38 11.3623V20.6088C324.38 21.0106 324.496 21.1273 324.898 21.1273H327.772C328.273 21.1273 329.107 21.2267 329.107 22.4149C329.107 23.3309 328.675 23.7327 327.772 23.7327H323.831H323.827Z" fill="white"/>
<path d="M333.825 22.3285C333.825 23.2791 333.056 23.9963 332.157 23.9963C331.259 23.9963 330.472 23.2445 330.472 22.3285C330.472 21.4125 331.241 20.6606 332.157 20.6606C333.073 20.6606 333.825 21.3606 333.825 22.3285Z" fill="white"/>
<path d="M341.253 10.0405C345.107 10.0405 348.179 12.9139 348.179 17.0186C348.179 21.1234 345.107 23.9967 341.253 23.9967C337.398 23.9967 334.326 21.1752 334.326 17.0186C334.326 12.862 337.433 10.0405 341.253 10.0405ZM341.253 21.3956C343.724 21.3956 345.344 19.3259 345.344 17.0229C345.344 14.72 343.741 12.6503 341.253 12.6503C338.764 12.6503 337.165 14.7545 337.165 17.0229C337.165 19.2914 338.785 21.3956 341.253 21.3956Z" fill="white"/>
<path d="M357.192 21.1277C357.745 21.1277 358.527 21.2617 358.527 22.4153C358.527 23.3011 358.125 23.7332 357.192 23.7332H350.732C349.613 23.7332 348.429 23.7332 348.429 22.2295C348.429 21.2617 348.831 20.9462 350.05 19.9741C351 19.2222 352.487 17.8871 353.455 16.9365C354.422 15.9687 355.04 15.2687 355.04 14.3484C355.04 13.5317 354.457 12.646 353.403 12.646C353.135 12.646 352.301 12.6978 351.432 13.3805C350.797 13.8644 350.698 13.9465 350.331 13.9465C349.479 13.9465 348.961 13.2293 348.961 12.5768C348.961 11.6435 350.897 10.0405 353.403 10.0405C355.909 10.0405 357.875 11.6911 357.875 14.249C357.875 16.3705 356.639 17.6883 352.564 21.1277H357.188H357.192Z" fill="white"/>
<path d="M359.163 17.0182C359.163 14.6158 359.612 13.1122 360.282 12.0622C361.15 10.6926 362.602 10.0444 364.071 10.0444C365.54 10.0444 366.957 10.6796 367.86 12.0795C368.863 13.648 368.962 15.8343 368.962 17.0225C368.962 19.1095 368.629 20.76 367.878 21.9482C366.759 23.7025 365.073 24.0006 364.071 24.0006C359.163 24.0006 359.163 18.1891 359.163 17.0225V17.0182ZM366.141 17.0182C366.141 14.2486 365.523 12.6456 364.071 12.6456C362.485 12.6456 362.001 14.5337 362.001 17.0182C362.001 19.723 362.567 21.3909 364.071 21.3909C365.575 21.3909 366.141 19.5027 366.141 17.0182Z" fill="white"/>
<path d="M375.002 13.7994C375.002 14.7672 374.216 15.4672 373.335 15.4672C372.453 15.4672 371.667 14.7327 371.667 13.7994C371.667 12.8661 372.436 12.1315 373.335 12.1143C374.203 12.1143 375.002 12.8142 375.002 13.7994ZM375.002 20.9762C375.002 21.9268 374.233 22.6441 373.335 22.6441C372.436 22.6441 371.667 21.9095 371.667 20.9762C371.667 20.0429 372.436 19.3084 373.335 19.3084C374.233 19.3084 375.002 20.0084 375.002 20.9762Z" fill="white"/>
<path d="M381.73 17.8564C381.497 17.8564 380.546 17.8392 380.546 16.7028C380.546 15.5664 381.35 15.5189 381.963 15.5189C383.1 15.5189 383.968 15.0177 383.968 14.0325C383.968 12.8962 382.802 12.6456 382.266 12.6456C381.199 12.6456 380.546 12.9955 379.997 13.298C379.846 13.3801 379.596 13.514 379.315 13.514C378.615 13.514 378.131 12.8141 378.131 12.1962C378.131 11.5135 378.684 11.1938 379.047 10.9777C379.479 10.7098 380.598 10.0444 382.37 10.0444C385.174 10.0444 386.794 11.7468 386.794 13.7992C386.794 15.4541 385.774 16.1022 385.29 16.4219C386.042 16.8065 387.546 17.5886 387.546 19.8267C387.546 21.797 386.059 24.0006 381.985 24.0006C380.334 24.0006 379.297 23.6679 378.58 23.3655C378.196 23.197 377.712 22.9464 377.712 22.2464C377.712 21.6631 378.079 20.8292 378.865 20.8292C379.081 20.8292 379.168 20.8637 379.85 21.0798C380.317 21.2137 380.887 21.3952 381.955 21.3952C383.64 21.3952 384.711 20.7125 384.711 19.494C384.711 18.7595 384.176 17.8564 382.192 17.8564H381.743H381.73Z" fill="white"/>
<path d="M388.458 17.0182C388.458 14.6158 388.907 13.1122 389.577 12.0622C390.445 10.6926 391.897 10.0444 393.366 10.0444C394.835 10.0444 396.252 10.6796 397.155 12.0795C398.158 13.648 398.257 15.8343 398.257 17.0225C398.257 19.1095 397.924 20.76 397.173 21.9482C396.054 23.7025 394.368 24.0006 393.366 24.0006C388.458 24.0006 388.458 18.1891 388.458 17.0225V17.0182ZM395.436 17.0182C395.436 14.2486 394.818 12.6456 393.366 12.6456C391.78 12.6456 391.296 14.5337 391.296 17.0182C391.296 19.723 391.862 21.3909 393.366 21.3909C394.87 21.3909 395.436 19.5027 395.436 17.0182Z" fill="white"/>
<path d="M400.076 11.06C399.774 10.5588 399.692 10.4249 399.692 10.1742C399.692 9.82426 399.994 9.34033 400.56 9.34033C400.992 9.34033 401.226 9.57366 401.563 10.0101C403.148 12.1489 403.982 14.7327 403.982 17.39C403.982 20.0473 403.131 22.7651 401.446 24.9039C401.195 25.2366 400.979 25.4396 400.56 25.4396C399.994 25.4396 399.692 24.9557 399.692 24.6057C399.692 24.3551 399.774 24.2385 400.076 23.72C401.247 21.7022 401.779 19.6627 401.779 17.3943C401.779 15.1259 401.243 13.0865 400.076 11.0687V11.06Z" fill="white"/>
</g>
<g filter="url(#filter3_d_2188_22903)">
<path d="M321.105 65.2645C321.407 65.7657 321.489 65.8996 321.489 66.1502C321.489 66.5175 321.174 66.9842 320.621 66.9842C320.189 66.9842 319.951 66.7508 319.618 66.3187C318.434 64.7157 317.199 62.2442 317.199 58.9388C317.199 56.234 318.05 53.5465 319.735 51.4249C319.986 51.0922 320.202 50.8892 320.621 50.8892C321.17 50.8892 321.489 51.3558 321.489 51.7231C321.489 51.9737 321.407 52.0903 321.105 52.6088C319.904 54.6785 319.402 56.7309 319.402 58.9345C319.402 61.1381 319.904 63.1905 321.105 65.2602V65.2645Z" fill="white"/>
<path d="M325.845 65.2816C323.559 65.2816 323.559 63.7606 323.559 62.9613V52.9111C323.559 52.0599 323.961 51.5933 324.963 51.5933C325.966 51.5933 326.398 51.9605 326.398 52.9111V62.1576C326.398 62.5595 326.514 62.6761 326.916 62.6761H329.785C330.287 62.6761 331.12 62.7755 331.12 63.9637C331.12 64.8797 330.688 65.2816 329.785 65.2816H325.845Z" fill="white"/>
<path d="M335.843 63.8817C335.843 64.8323 335.074 65.5495 334.175 65.5495C333.277 65.5495 332.49 64.7977 332.49 63.8817C332.49 62.9657 333.259 62.2139 334.175 62.2139C335.091 62.2139 335.843 62.9138 335.843 63.8817Z" fill="white"/>
<path d="M343.271 51.5933C347.125 51.5933 350.197 54.4666 350.197 58.5714C350.197 62.6761 347.125 65.5495 343.271 65.5495C339.417 65.5495 336.344 62.728 336.344 58.5714C336.344 54.4147 339.451 51.5933 343.271 51.5933ZM343.271 62.944C345.742 62.944 347.358 60.8743 347.358 58.5714C347.358 56.2684 345.755 54.1987 343.271 54.1987C340.786 54.1987 339.179 56.3029 339.179 58.5714C339.179 60.8398 340.799 62.944 343.271 62.944Z" fill="white"/>
<path d="M359.214 62.6804C359.767 62.6804 360.549 62.8144 360.549 63.968C360.549 64.8538 360.148 65.2859 359.214 65.2859H352.755C351.636 65.2859 350.452 65.2859 350.452 63.7822C350.452 62.8144 350.853 62.499 352.072 61.5268C353.023 60.775 354.509 59.4398 355.477 58.4893C356.445 57.5214 357.062 56.8214 357.062 55.9011C357.062 55.0845 356.479 54.1987 355.425 54.1987C355.157 54.1987 354.323 54.2506 353.455 54.9332C352.819 55.4172 352.72 55.4993 352.353 55.4993C351.502 55.4993 350.983 54.782 350.983 54.1296C350.983 53.1963 352.919 51.5933 355.425 51.5933C357.931 51.5933 359.897 53.2438 359.897 55.8017C359.897 57.9232 358.661 59.2411 354.587 62.6804H359.21H359.214Z" fill="white"/>
<path d="M361.185 58.5714C361.185 56.1691 361.634 54.6654 362.304 53.6155C363.172 52.2458 364.624 51.5977 366.093 51.5977C367.562 51.5977 368.98 52.2328 369.883 53.6328C370.885 55.2012 370.984 57.3875 370.984 58.5758C370.984 60.6627 370.652 62.3133 369.9 63.5015C368.781 65.2557 367.096 65.5539 366.093 65.5539C361.185 65.5539 361.185 59.7424 361.185 58.5758V58.5714ZM368.159 58.5714C368.159 55.8018 367.541 54.1988 366.089 54.1988C364.503 54.1988 364.019 56.087 364.019 58.5714C364.019 61.2763 364.585 62.9441 366.089 62.9441C367.593 62.9441 368.159 61.0559 368.159 58.5714Z" fill="white"/>
<path d="M377.025 55.3482C377.025 56.3161 376.238 57.016 375.357 57.016C374.475 57.016 373.689 56.2815 373.689 55.3482C373.689 54.4149 374.458 53.6804 375.357 53.6631C376.225 53.6631 377.025 54.3631 377.025 55.3482ZM377.025 62.5294C377.025 63.48 376.256 64.1972 375.357 64.1972C374.458 64.1972 373.689 63.4627 373.689 62.5294C373.689 61.5961 374.458 60.8615 375.357 60.8615C376.256 60.8615 377.025 61.5615 377.025 62.5294Z" fill="white"/>
<path d="M383.752 59.4053C383.519 59.4053 382.568 59.388 382.568 58.2516C382.568 57.1152 383.368 57.0677 383.986 57.0677C385.122 57.0677 385.99 56.5665 385.99 55.5814C385.99 54.445 384.824 54.1944 384.288 54.1944C383.221 54.1944 382.568 54.5444 382.02 54.8468C381.868 54.9289 381.618 55.0629 381.337 55.0629C380.637 55.0629 380.153 54.3629 380.153 53.745C380.153 53.0623 380.706 52.7426 381.069 52.5266C381.501 52.2587 382.62 51.5933 384.392 51.5933C387.196 51.5933 388.816 53.2957 388.816 55.348C388.816 57.0029 387.797 57.651 387.313 57.9708C388.064 58.3553 389.568 59.1374 389.568 61.3756C389.568 63.3459 388.082 65.5495 384.007 65.5495C382.357 65.5495 381.32 65.2168 380.602 64.9143C380.218 64.7458 379.734 64.4952 379.734 63.7952C379.734 63.2119 380.101 62.378 380.888 62.378C381.104 62.378 381.19 62.4126 381.873 62.6286C382.339 62.7625 382.91 62.944 383.977 62.944C385.662 62.944 386.734 62.2613 386.734 61.0429C386.734 60.3083 386.198 59.4053 384.215 59.4053H383.765H383.752Z" fill="white"/>
<path d="M390.48 58.5714C390.48 56.1691 390.929 54.6654 391.599 53.6155C392.467 52.2458 393.919 51.5977 395.388 51.5977C396.857 51.5977 398.274 52.2328 399.178 53.6328C400.18 55.2012 400.279 57.3875 400.279 58.5758C400.279 60.6627 399.947 62.3133 399.195 63.5015C398.076 65.2557 396.391 65.5539 395.388 65.5539C390.48 65.5539 390.48 59.7424 390.48 58.5758V58.5714ZM397.454 58.5714C397.454 55.8018 396.836 54.1988 395.384 54.1988C393.798 54.1988 393.314 56.087 393.314 58.5714C393.314 61.2763 393.88 62.9441 395.384 62.9441C396.888 62.9441 397.454 61.0559 397.454 58.5714Z" fill="white"/>
<path d="M402.094 52.6132C401.792 52.112 401.709 51.9781 401.709 51.7275C401.709 51.3775 402.012 50.8936 402.578 50.8936C403.01 50.8936 403.243 51.1269 403.58 51.5633C405.166 53.7021 406 56.2859 406 58.9432C406 61.6005 405.149 64.3183 403.464 66.4571C403.213 66.7898 402.997 66.9929 402.578 66.9929C402.012 66.9929 401.709 66.5089 401.709 66.159C401.709 65.9083 401.792 65.7917 402.094 65.2732C403.261 63.2554 403.796 61.216 403.796 58.9475C403.796 56.6791 403.261 54.6397 402.094 52.6219V52.6132Z" fill="white"/>
</g>
<path d="M103.794 0.888916H0.19873V30.8191H103.794V0.888916Z" fill="#FE9914"/>
<path d="M23.2893 16.0678H29.6236C30.168 16.0678 31.0451 16.1672 31.0451 17.3943C31.0451 18.4097 30.734 18.9153 29.6236 18.9153H23.2893V23.7286C23.2893 24.5669 22.9393 25.1329 21.8072 25.1329C20.753 25.1329 20.2474 24.8002 20.2474 23.7286V18.9153H13.9347C13.3514 18.9153 12.5132 18.777 12.5132 17.5888C12.5132 16.595 12.807 16.0678 13.9347 16.0678H20.2474V9.88909H14.6347C14.1076 9.88909 13.2132 9.78971 13.2132 8.6231C13.2132 7.6466 13.5243 7.12378 14.6347 7.12378H28.9798C29.4464 7.12378 30.4013 7.18427 30.4013 8.45027C30.4013 9.40516 30.0686 9.89341 28.9798 9.89341H23.2893V16.0722V16.0678ZM15.5334 14.292C15.339 13.6698 15.1446 13.1427 14.9112 12.5766C14.6001 11.7989 14.5396 11.5612 14.5396 11.3106C14.5396 10.5502 15.4557 10.1224 16.1556 10.1224C16.8556 10.1224 17.1883 10.4162 17.6938 11.7211C17.9488 12.3433 18.6098 14.0414 18.6098 14.508C18.6098 15.6012 17.3827 15.8345 17.0111 15.8345C16.0346 15.8345 15.8791 15.4068 15.5291 14.2963L15.5334 14.292ZM28.0638 14.642C27.6533 15.5191 27.3638 15.8907 26.6206 15.8907C25.9595 15.8907 25.0608 15.5407 25.0608 14.642C25.0608 14.2315 25.1386 14.0587 25.6441 12.8488C25.7824 12.5377 26.2663 11.1162 26.383 10.8397C26.5774 10.4119 26.9274 10.1397 27.4934 10.1397C28.4699 10.1397 29.2304 10.6668 29.2304 11.4273C29.2304 11.8939 28.2366 14.2531 28.0594 14.642H28.0638Z" fill="white"/>
<path d="M89.2288 21.8143C89.2288 23.8796 88.2955 24.4845 86.5801 24.4845H76.7762C75.0436 24.4845 74.106 23.8796 74.106 21.8143V9.94504C74.106 7.87969 75.0436 7.29639 76.7762 7.29639H86.5801C88.2739 7.29639 89.2288 7.86241 89.2288 9.94504V21.8143ZM86.1091 14.3307V10.8438C86.1091 10.3771 85.8153 10.1827 85.4481 10.1827H77.8651C77.3768 10.1827 77.2213 10.4938 77.2213 10.8438V14.3307H86.1091ZM77.2256 17.1565V20.9372C77.2256 21.2483 77.3638 21.5982 77.8694 21.5982H85.4524C85.8413 21.5982 86.1135 21.3822 86.1135 20.9372V17.1565H77.2256Z" fill="white"/>
<path d="M103.596 42.8223H0V72.7525H103.596V42.8223Z" fill="#FE9914"/>
<path d="M29.2215 53.3434C29.6319 53.3434 30.643 53.365 30.643 54.7866C30.643 56.0742 29.9042 56.2686 29.2215 56.2686H23.8637V63.48H30.0597C30.5264 63.48 31.5029 63.5189 31.5029 64.9405C31.5029 66.2065 30.7813 66.4225 30.0597 66.4225H14.4486C14.0209 66.4225 13.0271 66.4052 13.0271 64.9621C13.0271 63.6961 13.7487 63.48 14.4486 63.48H20.7225V56.2686H15.4208C14.9715 56.2686 13.9777 56.2297 13.9777 54.8255C13.9777 53.5206 14.7554 53.3434 15.4208 53.3434H20.7225V49.6794C20.7225 48.7634 21.3446 48.4307 22.1829 48.4307C23.0989 48.4307 23.8594 48.6467 23.8594 49.6794V53.3434H29.2172H29.2215Z" fill="white"/>
<path d="M49.7842 63.7523C49.7842 65.8176 48.8509 66.4225 47.1355 66.4225H37.3316C35.599 66.4225 34.6614 65.8176 34.6614 63.7523V51.883C34.6614 49.8177 35.599 49.2344 37.3316 49.2344H47.1355C48.8293 49.2344 49.7842 49.8004 49.7842 51.883V63.7523ZM46.6646 56.2686V52.7818C46.6646 52.3151 46.3708 52.1207 46.0035 52.1207H38.4205C37.9322 52.1207 37.7767 52.4318 37.7767 52.7818V56.2686H46.6646ZM37.781 59.0945V62.8752C37.781 63.1863 37.9193 63.5362 38.4248 63.5362H46.0078C46.3967 63.5362 46.6689 63.3202 46.6689 62.8752V59.0945H37.781Z" fill="white"/>
<path d="M58.4388 51.1397C58.5944 51.1397 58.7499 51.1397 59.0826 51.278C59.8215 51.5891 59.8992 52.4273 59.8992 52.8767C59.8992 53.9309 59.5104 55.0198 58.5944 56.6012C58.7499 56.8172 58.9443 57.0679 59.627 57.811C60.4653 58.6882 60.6424 58.8826 60.6424 59.3492C60.6424 60.0492 59.9424 60.7146 59.2598 60.7146C58.7715 60.7146 58.5382 60.343 58.0888 59.6431V65.6274C58.0888 66.6428 57.6783 67.0705 56.529 67.0705C55.1852 67.0705 55.1636 66.0378 55.1636 65.6274V60.7362C54.8698 60.9695 54.5976 61.164 54.1699 61.164C53.31 61.164 52.6489 60.3257 52.6489 59.5091C52.6489 58.6925 53.0767 58.3987 54.1094 57.5215C55.7469 56.1562 56.6802 54.3846 56.6802 54.2075C56.6802 53.9742 56.4469 53.9526 56.3691 53.9526H54.2433C53.3057 53.9526 52.8218 53.581 52.8218 52.4921C52.8218 51.1484 53.9149 51.1484 54.2433 51.1484H55.1593V49.8824C55.1593 48.8108 55.6476 48.4392 56.7191 48.4392C58.0456 48.4392 58.0845 49.433 58.0845 49.8824V51.1484H58.4345L58.4388 51.1397ZM67.8927 63.1645C67.8927 63.8645 68.0483 63.9422 68.3983 63.9422C68.6705 63.9422 68.9254 63.9422 68.9643 62.754C69.0248 61.5442 69.0421 60.922 70.1741 60.922C71.3623 60.922 71.4401 61.6436 71.4401 62.4213C71.4401 63.2985 71.3234 65.4243 70.8741 66.1459C70.4247 66.8674 69.6081 66.8674 68.2816 66.8674C65.7496 66.8674 65.3002 66.6341 65.3002 64.4305V58.04H64.3626C64.2849 61.5874 63.3861 63.5534 62.5306 64.8799C62.159 65.4459 61.0875 66.9063 60.0764 66.9063C59.3159 66.9063 58.5555 66.1286 58.5555 65.407C58.5555 64.9015 58.6548 64.8237 60.1542 63.3201C61.5195 61.9763 61.7529 60.0449 61.8695 57.9795C60.5041 57.6857 60.3313 56.6142 60.3313 55.6593V51.3341C60.3313 49.4632 61.2084 48.975 62.6905 48.975H68.4804C69.9624 48.975 70.8568 49.4632 70.8568 51.3341V55.6593C70.8568 57.4913 70.0186 58.0357 68.4804 58.0357H67.897V63.1602L67.8927 63.1645ZM67.9489 52.2502C67.9489 51.8786 67.7545 51.7057 67.4045 51.7057H63.7231C63.3516 51.7057 63.1787 51.9002 63.1787 52.2502V54.8815C63.1787 55.2531 63.3732 55.4259 63.7231 55.4259H67.4045C67.7545 55.4259 67.9489 55.2488 67.9489 54.8815V52.2502Z" fill="white"/>
<path d="M89.7041 63.7523C89.7041 65.8176 88.7708 66.4225 87.0555 66.4225H77.2516C75.5189 66.4225 74.5813 65.8176 74.5813 63.7523V51.883C74.5813 49.8177 75.5189 49.2344 77.2516 49.2344H87.0555C88.7492 49.2344 89.7041 49.8004 89.7041 51.883V63.7523ZM86.5845 56.2686V52.7818C86.5845 52.3151 86.2907 52.1207 85.9234 52.1207H78.3404C77.8521 52.1207 77.6966 52.4318 77.6966 52.7818V56.2686H86.5845ZM77.6966 59.0945V62.8752C77.6966 63.1863 77.8349 63.5362 78.3404 63.5362H85.9234C86.3123 63.5362 86.5845 63.3202 86.5845 62.8752V59.0945H77.6966Z" fill="white"/>
</g>
<defs>
<filter id="filter0_d_2188_22903" x="105.259" y="-3.1687" width="210.692" height="37.4319" filterUnits="userSpaceOnUse" color-interpolation-filters="sRGB">
<feFlood flood-opacity="0" result="BackgroundImageFix"/>
<feColorMatrix in="SourceAlpha" type="matrix" values="0 0 0 0 0 0 0 0 0 0 0 0 0 0 0 0 0 0 127 0" result="hardAlpha"/>
<feOffset/>
<feGaussianBlur stdDeviation="3.5"/>
<feComposite in2="hardAlpha" operator="out"/>
<feColorMatrix type="matrix" values="0 0 0 0 0 0 0 0 0 0 0 0 0 0 0 0 0 0 0.75 0"/>
<feBlend mode="normal" in2="BackgroundImageFix" result="effect1_dropShadow_2188_22903"/>
<feBlend mode="normal" in="SourceGraphic" in2="effect1_dropShadow_2188_22903" result="shape"/>
</filter>
<filter id="filter1_d_2188_22903" x="108.08" y="38.7649" width="209.201" height="37.4319" filterUnits="userSpaceOnUse" color-interpolation-filters="sRGB">
<feFlood flood-opacity="0" result="BackgroundImageFix"/>
<feColorMatrix in="SourceAlpha" type="matrix" values="0 0 0 0 0 0 0 0 0 0 0 0 0 0 0 0 0 0 127 0" result="hardAlpha"/>
<feOffset/>
<feGaussianBlur stdDeviation="3.5"/>
<feComposite in2="hardAlpha" operator="out"/>
<feColorMatrix type="matrix" values="0 0 0 0 0 0 0 0 0 0 0 0 0 0 0 0 0 0 0.75 0"/>
<feBlend mode="normal" in2="BackgroundImageFix" result="effect1_dropShadow_2188_22903"/>
<feBlend mode="normal" in="SourceGraphic" in2="effect1_dropShadow_2188_22903" result="shape"/>
</filter>
<filter id="filter2_d_2188_22903" x="308.181" y="2.34033" width="102.801" height="30.0994" filterUnits="userSpaceOnUse" color-interpolation-filters="sRGB">
<feFlood flood-opacity="0" result="BackgroundImageFix"/>
<feColorMatrix in="SourceAlpha" type="matrix" values="0 0 0 0 0 0 0 0 0 0 0 0 0 0 0 0 0 0 127 0" result="hardAlpha"/>
<feOffset/>
<feGaussianBlur stdDeviation="3.5"/>
<feComposite in2="hardAlpha" operator="out"/>
<feColorMatrix type="matrix" values="0 0 0 0 0 0 0 0 0 0 0 0 0 0 0 0 0 0 0.75 0"/>
<feBlend mode="normal" in2="BackgroundImageFix" result="effect1_dropShadow_2188_22903"/>
<feBlend mode="normal" in="SourceGraphic" in2="effect1_dropShadow_2188_22903" result="shape"/>
</filter>
<filter id="filter3_d_2188_22903" x="310.199" y="43.8892" width="102.801" height="30.1038" filterUnits="userSpaceOnUse" color-interpolation-filters="sRGB">
<feFlood flood-opacity="0" result="BackgroundImageFix"/>
<feColorMatrix in="SourceAlpha" type="matrix" values="0 0 0 0 0 0 0 0 0 0 0 0 0 0 0 0 0 0 127 0" result="hardAlpha"/>
<feOffset/>
<feGaussianBlur stdDeviation="3.5"/>
<feComposite in2="hardAlpha" operator="out"/>
<feColorMatrix type="matrix" values="0 0 0 0 0 0 0 0 0 0 0 0 0 0 0 0 0 0 0.75 0"/>
<feBlend mode="normal" in2="BackgroundImageFix" result="effect1_dropShadow_2188_22903"/>
<feBlend mode="normal" in="SourceGraphic" in2="effect1_dropShadow_2188_22903" result="shape"/>
</filter>
<clipPath id="clip0_2188_22903">
<rect width="406" height="71.8636" fill="white" transform="translate(0 0.888672)"/>
</clipPath>
</defs>
</svg>
