<svg width="48" height="48" viewBox="0 0 32 22" fill="none" xmlns="http://www.w3.org/2000/svg">
<g clip-path="url(#clip0_2001_42136)">
<path d="M29.9252 8.10474C30.1249 12.7787 29.8579 15.5337 27.5991 17.6504C25.7037 19.4256 22.7764 21.448 16.1726 21.448C9.56886 21.448 6.62812 19.7919 4.74614 18.001C2.79013 16.1404 2.22262 12.7787 2.42002 8.10474" fill="#C60E00"/>
<path d="M5.15451 14.3231C3.70097 15.5275 2.00068 14.732 1.10119 13.2197C0.784907 12.6917 0.54265 11.9726 0.504517 11.2692L0.760233 9.17944" fill="#9C362C"/>
<path d="M26.0247 4.27929C27.6577 2.58272 30.4974 3.6838 31.1816 5.13768C31.4171 5.63653 31.6594 6.7129 31.3633 7.63196C31.1681 8.23418 30.742 8.76899 29.9277 9.02516" fill="#9C362C"/>
<path d="M30.1139 8.74264C30.1139 13.2661 23.8645 16.9311 16.1571 16.9311C8.44974 16.9311 2.20264 13.2638 2.20264 8.74264C2.20264 4.22147 8.44974 0.554199 16.1571 0.554199C23.8645 0.554199 30.1139 4.21922 30.1139 8.74264Z" fill="#FF481D"/>
<path d="M28.7119 8.74241C28.7119 12.8097 23.0906 16.1062 16.1594 16.1062C9.22813 16.1062 3.60461 12.8097 3.60461 8.74241C3.60461 4.67516 9.22589 1.37866 16.1594 1.37866C23.0929 1.37866 28.7119 4.67516 28.7119 8.74241Z" fill="url(#paint0_radial_2001_42136)"/>
<path d="M2.39536 7.86035C-0.0406722 8.24685 0.284581 10.885 1.09884 12.2512C2.00057 13.7612 3.70086 14.5567 5.15217 13.3545" fill="#FF481D"/>
<path d="M26.0247 3.20902C27.6577 1.51246 29.7976 2.97308 30.7195 4.28763C31.5719 5.50107 31.9824 7.30549 29.9255 7.95715" fill="#FF481D"/>
<path d="M29.9163 4.46415C29.7795 4.27989 28.7252 4.73156 28.8463 5.0484C28.9675 5.36524 30.2797 4.95177 29.9163 4.46415Z" fill="#A32909"/>
<path d="M30.5982 5.68168C30.4614 5.49742 29.4071 5.94909 29.5282 6.26593C29.6494 6.58277 30.9616 6.1693 30.5982 5.68168Z" fill="#A32909"/>
<path d="M28.8352 3.46279C28.6781 3.29426 27.68 3.85603 27.8347 4.15714C27.9895 4.45826 29.2501 3.90772 28.8352 3.46279Z" fill="#A32909"/>
<path d="M1.64165 11.4542C1.7224 11.6676 2.85967 11.5261 2.83051 11.189C2.80135 10.8519 1.42631 10.8857 1.64165 11.4542Z" fill="#A32909"/>
<path d="M1.31865 9.93653C1.37921 10.159 2.5232 10.1298 2.52769 9.79047C2.53218 9.45115 1.15938 9.35003 1.31865 9.93653Z" fill="#A32909"/>
<path d="M2.53673 12.8475C2.63991 13.052 3.75475 12.7913 3.69194 12.4587C3.62689 12.1262 2.26307 12.3059 2.53673 12.8475Z" fill="#A32909"/>
<g opacity="0.37">
<path d="M2.50085 9.32422C2.59282 10.2523 3.87813 12.6095 5.1769 13.8184C3.06612 12.2544 2.52777 10.3107 2.50085 9.32422Z" fill="#FFF7F6"/>
</g>
<g opacity="0.37">
<path d="M29.6225 6.96236C29.3376 6.07476 27.5879 4.03888 26.0626 3.1333C28.456 4.2164 29.3892 6.0051 29.6225 6.96236Z" fill="#FFF7F6"/>
</g>
<g opacity="0.37">
<path d="M29.5776 10.542C29.0437 11.7105 26.5651 14.9396 20.2955 16.335C27.2761 15.1508 29.286 11.4498 29.5776 10.542Z" fill="#FFF7F6"/>
</g>
<g opacity="0.37">
<path d="M4.47021 4.5198C5.76674 3.12435 11.6303 0.140199 18.8374 0.870507C10.3651 -0.185631 5.14315 3.66815 4.47021 4.5198Z" fill="#FFF7F6"/>
</g>
</g>
<defs>
<radialGradient id="paint0_radial_2001_42136" cx="0" cy="0" r="1" gradientUnits="userSpaceOnUse" gradientTransform="translate(15.0917 3.44674) scale(21.2402 13.405)">
<stop stop-color="#FFB600"/>
<stop offset="1" stop-color="#D62600"/>
</radialGradient>
<clipPath id="clip0_2001_42136">
<rect width="31" height="20.8913" fill="white" transform="translate(0.5 0.554199)"/>
</clipPath>
</defs>
</svg>
