<svg width="273" height="231" viewBox="0 0 273 231" fill="none" xmlns="http://www.w3.org/2000/svg">
<circle cx="115.5" cy="115.5" r="115.5" fill="url(#paint0_radial_2001_33373)"/>
<g filter="url(#filter0_d_2001_33373)">
<path d="M36.1153 58.3156C36.8707 58.3156 37.9654 58.4841 37.9654 60.0929C37.9654 61.3033 37.395 61.8932 36.1153 61.8932H28.0824C26.5251 61.8932 25.0142 61.8932 25.0142 59.8631C25.0142 58.5914 25.4998 58.193 27.1342 56.9137C28.252 56.0327 30.0559 54.4699 31.2971 53.2365C32.5382 52.0261 33.2321 51.2294 33.2321 50.1875C33.2321 49.3525 32.6462 48.2646 31.3587 48.2646C30.4722 48.2646 29.6165 48.617 29.0229 49.0613C28.1826 49.7125 28.0361 49.8121 27.5505 49.8121C26.371 49.8121 25.654 48.8085 25.654 47.9275C25.654 46.6941 28.1363 44.687 31.351 44.687C34.797 44.687 37.1329 46.924 37.1329 50.0572C37.1329 52.5853 35.7683 54.2171 30.8191 58.3156H36.0998H36.1153Z" fill="white"/>
<path d="M40.9489 59.5874C39.646 57.5573 39.5844 54.6998 39.5844 53.4434C39.5844 50.4557 40.1548 48.5711 40.9951 47.2535C42.1284 45.4992 43.9785 44.6794 45.8518 44.6794C47.7252 44.6794 49.5753 45.4762 50.7086 47.2535C51.9883 49.2606 52.1193 51.9802 52.1193 53.4434C52.1193 56.0941 51.6799 58.1242 50.7317 59.6104C49.2824 61.8473 47.1316 62.2227 45.8518 62.2227C44.5721 62.2227 42.4444 61.8856 40.9489 59.5874ZM48.2031 53.4434C48.2031 50.3944 47.5941 48.257 45.8441 48.257C43.9708 48.257 43.4852 50.6779 43.4852 53.4587C43.4852 56.4465 44.071 58.6451 45.8441 58.6451C47.6172 58.6451 48.2031 56.2626 48.2031 53.4434Z" fill="white"/>
<path d="M64.9242 58.3156C65.6797 58.3156 66.7744 58.4841 66.7744 60.0929C66.7744 61.3033 66.2039 61.8932 64.9242 61.8932H56.8913C55.3341 61.8932 53.8231 61.8932 53.8231 59.8631C53.8231 58.5914 54.3088 58.193 55.9431 56.9137C57.0609 56.0327 58.8649 54.4699 60.106 53.2365C61.3472 52.0261 62.041 51.2294 62.041 50.1875C62.041 49.3525 61.4551 48.2646 60.1677 48.2646C59.2812 48.2646 58.4254 48.617 57.8318 49.0613C56.9916 49.7125 56.8451 49.8121 56.3594 49.8121C55.1799 49.8121 54.463 48.8085 54.463 47.9275C54.463 46.6941 56.9453 44.687 60.16 44.687C63.606 44.687 65.9418 46.924 65.9418 50.0572C65.9418 52.5853 64.5773 54.2171 59.6281 58.3156H64.9088H64.9242Z" fill="white"/>
<path d="M69.4417 48.05C69.4417 46.7554 69.6344 45.0164 72.3635 45.0164H78.0451C78.7157 45.0164 79.8952 45.1389 79.8952 46.7707C79.8952 48.4024 78.8853 48.5863 78.0451 48.5863H73.674C73.1883 48.5863 73.0419 48.7319 73.0419 49.2145V50.9075C73.7588 50.739 74.2599 50.6164 75 50.6164C77.9448 50.6164 80.9128 52.478 80.9128 56.2624C80.9128 59.3114 78.8545 62.2226 74.0132 62.2226C72.9185 62.2226 71.0915 62.031 69.7424 61.4718C68.9252 61.1347 68.6091 60.6751 68.6091 59.9243C68.6091 58.8595 69.3029 58.0014 70.1664 58.0014C70.4593 58.0014 70.7368 58.0857 71.4538 58.2926C72.0243 58.4611 72.7181 58.645 73.8282 58.645C74.3293 58.645 77.0043 58.645 77.0043 56.3237C77.0043 55.1133 76.1409 54.194 74.6453 54.194C73.7588 54.194 73.4504 54.4238 72.6256 55.029C72.456 55.1516 71.9317 55.4427 71.2148 55.4427C69.4494 55.4427 69.4494 54.1481 69.4494 53.4816V48.05H69.4417Z" fill="white"/>
<path d="M100.294 45.545C100.718 45.545 101.997 45.545 101.997 47.1155C101.997 48.3872 101.473 48.8928 100.294 48.8928H95.7529V50.5858H99.646C100.34 50.5858 101.311 50.7314 101.311 52.0873C101.311 53.2135 100.972 53.8187 99.646 53.8187H95.7529V56.2625H101.034C101.689 56.2625 102.714 56.3467 102.714 57.9172C102.714 59.4877 101.766 59.572 101.034 59.572H95.7529V62.3069C95.7529 63.0193 95.6449 63.9616 94.0492 63.9616C92.5382 63.9616 92.1758 63.4177 92.1758 62.3069V59.572H84.2432C83.6958 59.572 82.5626 59.549 82.5626 57.9402C82.5626 56.3314 83.611 56.2701 84.2432 56.2701H85.4381V53.1982C85.4381 52.7615 85.4612 52.57 85.4998 52.3631C85.307 52.5087 85.0989 52.6772 84.6364 52.6772C83.5648 52.6772 82.4701 51.6966 82.4701 50.6088C82.4701 49.9423 82.4932 49.9193 84.1121 48.2876C85.3148 47.0772 86.024 45.8591 86.6176 44.8785C86.9568 44.2963 87.2497 43.9209 88.1131 43.9209C89.0382 43.9209 90.2794 44.4648 90.2409 45.5527H100.294V45.545ZM88.514 48.8928C88.3444 49.1456 87.7971 49.9193 87.1495 50.6701C87.5504 50.6088 87.8202 50.5858 88.0746 50.5858H92.1758V48.8928H88.514ZM92.1758 56.2701V53.8263H89.4391C89.123 53.8263 88.9534 53.9949 88.9534 54.309V56.2701H92.1681H92.1758Z" fill="white"/>
</g>
<g filter="url(#filter1_d_2001_33373)">
<path d="M32.4149 80.3633C31.9446 80.7081 30.9964 81.3439 30.0944 81.3439C28.329 81.3439 26.7872 79.1683 26.7872 77.5825C26.7872 76.3031 27.8202 75.6213 28.7608 74.9778L33.8719 71.5228C34.689 70.9712 35.8069 70.2434 37.6108 70.2434C41.9048 70.2434 41.9048 73.5759 41.9048 74.8093V102.396C41.9048 104.02 41.4731 106.065 37.95 106.065C35.0745 106.065 33.9104 104.955 33.9104 102.396V79.3368L32.4072 80.3633H32.4149Z" fill="white"/>
</g>
<g filter="url(#filter2_d_2001_33373)">
<path d="M58.3407 100.128C58.1479 101.99 57.9398 103.162 57.3308 104.541C56.6138 106.196 56.0665 106.464 55.2262 106.464C54.1084 106.464 53.0137 105.728 53.0137 104.794C53.0137 104.311 53.1833 103.982 53.5996 103.269C54.2703 102.12 55.1337 100.657 55.1337 95.9993V90.0238C55.1337 87.7256 56.2515 87.1204 58.0323 87.1204H67.6455C69.4572 87.1204 70.5673 87.7256 70.5673 90.0238V103.361C70.5673 106.311 68.9021 106.311 65.9418 106.311C65.2865 106.311 63.9452 106.311 63.4595 106.142C62.5344 105.851 62.3417 104.97 62.3417 104.365C62.3417 102.634 63.498 102.634 64.0454 102.634C64.3383 102.634 65.6257 102.695 65.8724 102.695C66.5431 102.695 66.944 102.657 66.944 102.067V100.144H58.3175L58.3407 100.128ZM66.9671 92.0999V91.1806C66.9671 90.8052 66.759 90.5984 66.3812 90.5984H59.2272C58.8263 90.5984 58.6413 90.8282 58.6413 91.1806V92.0999H66.9671ZM58.6336 95.2945V96.9032H66.9594V95.2945H58.6336Z" fill="white"/>
</g>
<g filter="url(#filter3_d_2001_33373)">
<path d="M83.4029 80.3641C82.9327 80.7088 81.9844 81.3447 81.0825 81.3447C79.3171 81.3447 77.7753 79.169 77.7753 77.5832C77.7753 76.3038 78.8083 75.622 79.7488 74.9785L84.8599 71.5235C85.6771 70.9719 86.7949 70.2441 88.5988 70.2441C92.8928 70.2441 92.8928 73.5766 92.8928 74.81V102.397C92.8928 104.021 92.4611 106.066 88.938 106.066C86.0625 106.066 84.8985 104.955 84.8985 102.397V79.3375L83.3952 80.3641H83.4029Z" fill="white"/>
<path d="M107.208 100.688C104.541 96.5433 104.418 90.6981 104.418 88.1318C104.418 82.0261 105.574 78.1804 107.293 75.4914C109.614 71.9061 113.399 70.2361 117.223 70.2361C121.046 70.2361 124.831 71.8602 127.152 75.4914C129.773 79.5899 130.027 85.144 130.027 88.1318C130.027 93.5556 129.125 97.7001 127.19 100.726C124.222 105.292 119.844 106.066 117.223 106.066C114.601 106.066 110.261 105.384 107.208 100.688ZM122.033 88.1318C122.033 81.8959 120.784 77.5445 117.223 77.5445C113.399 77.5445 112.412 82.5011 112.412 88.1777C112.412 94.2834 113.615 98.765 117.223 98.765C120.83 98.765 122.033 93.9004 122.033 88.1318Z" fill="white"/>
</g>
<g filter="url(#filter4_d_2001_33373)">
<path d="M151.258 102.84C151.258 105.138 150.164 105.744 148.36 105.744H137.652C135.825 105.744 134.73 105.138 134.73 102.84V90.0695C134.73 87.7943 135.825 87.1814 137.652 87.1814H148.36C150.171 87.1814 151.258 87.7866 151.258 90.0695V102.84ZM147.558 94.6507V91.1803C147.558 90.7207 147.203 90.5981 146.972 90.5981H139.039C138.515 90.5981 138.453 90.9965 138.453 91.1803V94.6507H147.558ZM138.453 97.9755V101.737C138.453 101.944 138.538 102.319 139.039 102.319H146.972C147.18 102.319 147.558 102.212 147.558 101.737V97.9755H138.453Z" fill="white"/>
</g>
<g filter="url(#filter5_d_2001_33373)">
<path d="M205.657 88.3821C205.657 88.9543 205.409 89.3606 204.672 90.0129C203.388 91.1002 201.338 92.239 198.47 92.239C196.34 92.239 195.654 91.9128 192.188 90.1503C190.109 89.0916 189.401 88.7941 188.065 88.7941C186.401 88.7941 185.059 89.4178 184.022 90.3162C183.533 90.7511 183.366 90.8885 182.848 90.8885C181.811 90.8885 181.016 89.9901 181.016 89.0687C181.016 88.445 181.425 87.7927 182.681 86.9C184.345 85.7326 186.314 85.189 188.197 85.189C190.495 85.189 191.393 85.6525 194.808 87.415C196.449 88.2562 197.186 88.6338 198.58 88.6338C199.893 88.6338 201.309 88.2276 202.242 87.415C203.008 86.734 203.307 86.5452 203.745 86.5452C204.891 86.5452 205.657 87.4436 205.657 88.3935V88.3821Z" fill="white"/>
</g>
<g filter="url(#filter6_d_2001_33373)">
<path d="M48.103 145.886C49.6525 145.886 51.8882 146.231 51.8882 149.517C51.8882 151.992 50.7318 153.187 48.103 153.187H31.6904C28.5142 153.187 25.4152 153.187 25.4152 149.042C25.4152 146.438 26.4019 145.626 29.7554 143.021C32.0296 141.228 35.7299 138.026 38.2662 135.506C40.8025 133.031 42.221 131.407 42.221 129.27C42.221 127.561 41.0184 125.34 38.3973 125.34C36.5933 125.34 34.828 126.068 33.6253 126.964C31.9062 128.289 31.6056 128.504 30.6188 128.504C28.2136 128.504 26.7488 126.451 26.7488 124.658C26.7488 122.138 31.8214 118.039 38.3973 118.039C45.4434 118.039 50.2153 122.605 50.2153 129.017C50.2153 134.18 47.4246 137.513 37.3257 145.886H48.1107H48.103Z" fill="white"/>
</g>
<g filter="url(#filter7_d_2001_33373)">
<path d="M62.2568 147.932C62.0641 149.793 61.8559 150.965 61.2469 152.344C60.53 153.999 59.9826 154.267 59.1423 154.267C58.0245 154.267 56.9298 153.532 56.9298 152.597C56.9298 152.114 57.0994 151.785 57.5157 151.073C58.1864 149.923 59.0498 148.46 59.0498 143.802V137.827C59.0498 135.529 60.1676 134.924 61.9484 134.924H71.5617C73.3733 134.924 74.4834 135.529 74.4834 137.827V151.165C74.4834 154.114 72.8182 154.114 69.858 154.114C69.2027 154.114 67.8613 154.114 67.3756 153.945C66.4505 153.654 66.2578 152.773 66.2578 152.168C66.2578 150.437 67.4142 150.437 67.9615 150.437C68.2545 150.437 69.5419 150.498 69.7886 150.498C70.4593 150.498 70.8601 150.46 70.8601 149.87V147.947H62.2337L62.2568 147.932ZM70.8756 139.903V138.984C70.8756 138.608 70.6674 138.402 70.2897 138.402H63.1356C62.7348 138.402 62.5497 138.631 62.5497 138.984V139.903H70.8756ZM62.5497 143.098V144.706H70.8756V143.098H62.5497Z" fill="white"/>
</g>
<g filter="url(#filter8_d_2001_33373)">
<path d="M102.29 145.886C103.84 145.886 106.075 146.231 106.075 149.517C106.075 151.992 104.919 153.187 102.29 153.187H85.8775C82.7013 153.187 79.6023 153.187 79.6023 149.042C79.6023 146.438 80.5891 145.626 83.9425 143.021C86.2167 141.228 89.9171 138.026 92.4533 135.506C94.9896 133.031 96.4081 131.407 96.4081 129.27C96.4081 127.561 95.2055 125.34 92.5844 125.34C90.7805 125.34 89.0151 126.068 87.8125 126.964C86.0933 128.289 85.7927 128.504 84.8059 128.504C82.4007 128.504 80.936 126.451 80.936 124.658C80.936 122.138 86.0085 118.039 92.5844 118.039C99.6305 118.039 104.402 122.605 104.402 129.017C104.402 134.18 101.612 137.513 91.5128 145.886H102.298H102.29Z" fill="white"/>
</g>
<g filter="url(#filter9_d_2001_33373)">
<path d="M128.941 150.644C128.941 152.942 127.846 153.547 126.042 153.547H115.334C113.507 153.547 112.412 152.942 112.412 150.644V137.873C112.412 135.598 113.507 134.985 115.334 134.985H126.042C127.854 134.985 128.941 135.59 128.941 137.873V150.644ZM125.24 142.454V138.984C125.24 138.524 124.886 138.402 124.654 138.402H116.722C116.197 138.402 116.136 138.8 116.136 138.984V142.454H125.24ZM116.128 145.779V149.541C116.128 149.748 116.213 150.123 116.714 150.123H124.647C124.855 150.123 125.232 150.016 125.232 149.541V145.779H116.128Z" fill="white"/>
</g>
<g filter="url(#filter10_d_2001_33373)">
<path d="M177.161 96.8495C177.161 102.848 172.266 107.705 166.237 107.705C160.209 107.705 155.313 102.84 155.313 96.8495C155.313 90.8588 160.209 85.9941 166.237 85.9941C172.266 85.9941 177.161 90.8588 177.161 96.8495Z" fill="white"/>
</g>
<path d="M163.076 95.8687C162.321 95.8687 162.105 95.524 162.09 95.0337C161.635 95.2635 160.941 95.6236 160.571 95.6236C159.954 95.6236 159.569 94.9111 159.569 94.3519C159.569 93.739 160.047 93.5322 160.324 93.4249C162.013 92.7431 162.49 92.5516 164.109 91.3412C165.042 90.6364 165.25 90.4832 166.137 90.4832C166.962 90.4832 167.101 90.5904 168.28 91.4484C168.897 91.9004 170.045 92.7278 171.803 93.4402C172.158 93.5781 172.559 93.739 172.559 94.3289C172.559 94.8498 172.227 95.6389 171.487 95.6389C171.225 95.6389 170.924 95.547 169.991 95.0567C169.961 95.4244 169.868 95.8764 169.005 95.8764H167.031V96.7727H171.063C171.834 96.7727 172.065 97.1174 172.065 97.8069C172.065 98.6802 171.364 98.7032 171.063 98.7032H170.092C170.554 98.8947 170.616 99.1935 170.616 99.3314C170.616 99.6608 170.138 100.925 169.822 101.201H171.356C172.111 101.201 172.358 101.545 172.358 102.235C172.358 103.108 171.672 103.131 171.356 103.131H160.687C159.916 103.131 159.669 102.794 159.669 102.097C159.669 101.224 160.378 101.201 160.687 101.201H162.221C162.167 101.162 162.113 101.109 162.059 101.009C162.028 100.955 161.758 100.343 161.712 100.258C161.434 99.6148 161.411 99.5536 161.411 99.3697C161.411 98.933 161.835 98.7722 161.989 98.7032H160.987C160.232 98.7032 159.985 98.3661 159.985 97.669C159.985 96.7957 160.71 96.7727 160.987 96.7727H165.004V95.8764H163.084L163.076 95.8687ZM163.115 98.7032C163.277 98.7951 163.362 98.8947 163.593 99.4386C163.816 99.9672 163.978 100.35 163.978 100.68C163.978 101.009 163.77 101.116 163.639 101.201H164.996V98.7032H163.115ZM168.288 93.9995C167.64 93.5475 167.039 93.1108 166.337 92.429C166.199 92.3064 166.175 92.2528 166.075 92.2528C165.967 92.2528 165.882 92.3371 165.813 92.4137C165.219 93.0112 164.564 93.5322 163.878 93.9918H168.28L168.288 93.9995ZM168.388 101.201C168.28 101.132 168.002 100.971 168.002 100.603C168.002 100.427 168.056 100.32 168.157 100.097C168.187 100.044 168.373 99.6608 168.442 99.4693C168.619 98.9943 168.673 98.8411 168.881 98.7032H167.031V101.201H168.388Z" fill="#230A34"/>
<g filter="url(#filter11_d_2001_33373)">
<path d="M155.228 144.653C155.228 150.651 150.333 155.508 144.305 155.508C138.276 155.508 133.381 150.644 133.381 144.653C133.381 138.662 138.276 133.798 144.305 133.798C150.333 133.798 155.228 138.662 155.228 144.653Z" fill="white"/>
</g>
<path d="M149.447 149.073C149.447 150.521 148.791 150.942 147.581 150.942H140.681C139.463 150.942 138.8 150.521 138.8 149.073V140.777C138.8 139.329 139.456 138.923 140.681 138.923H147.581C148.776 138.923 149.447 139.321 149.447 140.777V149.073ZM147.25 143.833V141.397C147.25 141.068 147.041 140.937 146.787 140.937H141.452C141.105 140.937 140.998 141.152 140.998 141.397V143.833H147.25ZM140.998 145.81V148.453C140.998 148.675 141.09 148.92 141.452 148.92H146.787C147.065 148.92 147.25 148.767 147.25 148.453V145.81H140.998Z" fill="#230A34"/>
<g clip-path="url(#clip0_2001_33373)">
<g filter="url(#filter12_d_2001_33373)">
<path d="M97.0556 178.722C96.8697 178.859 96.5451 179.079 96.2074 179.079C95.5634 179.079 95.0188 178.264 95.0188 177.704C95.0188 177.246 95.3932 176.992 95.7492 176.735L97.8201 175.327C98.1081 175.141 98.5505 174.835 99.1946 174.835C100.739 174.835 100.739 176.057 100.739 176.534V187.689C100.739 188.268 100.587 189.03 99.3124 189.03C98.1421 189.03 97.8515 188.469 97.8515 187.689V178.181L97.053 178.725L97.0556 178.722Z" fill="white"/>
<path d="M104.611 177.466C104.611 176.463 104.763 175.107 106.868 175.107H111.505C111.997 175.107 112.863 175.209 112.863 176.413C112.863 177.348 112.405 177.754 111.505 177.754H107.787C107.413 177.754 107.261 177.856 107.261 178.28V180.029C107.889 179.859 108.332 179.741 108.991 179.741C111.316 179.741 113.712 181.236 113.712 184.275C113.712 186.77 111.978 189.03 108.211 189.03C107.413 189.03 105.92 188.893 104.781 188.401C104.171 188.147 103.915 187.825 103.915 187.231C103.915 186.451 104.441 185.823 105.051 185.823C105.271 185.823 105.357 185.857 106.07 186.076C106.528 186.213 107.122 186.383 108.057 186.383C108.465 186.383 110.824 186.383 110.824 184.312C110.824 183.191 110.025 182.393 108.701 182.393C107.852 182.393 107.462 182.699 106.986 183.055C106.97 183.071 106.543 183.396 105.918 183.396C104.611 183.396 104.611 182.427 104.611 181.935V177.468V177.466Z" fill="white"/>
<path d="M120.469 178.654C120.469 179.639 119.67 180.353 118.77 180.353C117.869 180.353 117.071 179.607 117.071 178.654C117.071 177.701 117.851 176.958 118.77 176.939C119.652 176.939 120.469 177.652 120.469 178.654ZM120.469 185.956C120.469 186.925 119.689 187.655 118.77 187.655C117.851 187.655 117.071 186.909 117.071 185.956C117.071 185.003 117.851 184.257 118.77 184.257C119.689 184.257 120.469 184.969 120.469 185.956Z" fill="white"/>
<path d="M123.812 181.932C123.812 179.487 124.27 177.961 124.948 176.89C125.83 175.497 127.307 174.835 128.802 174.835C130.297 174.835 131.739 175.479 132.656 176.906C133.674 178.503 133.776 180.725 133.776 181.932C133.776 184.055 133.436 185.736 132.671 186.94C131.535 188.723 129.82 189.03 128.799 189.03C123.807 189.03 123.807 183.121 123.807 181.932H123.812ZM130.909 181.932C130.909 179.113 130.281 177.484 128.804 177.484C127.192 177.484 126.7 179.403 126.7 181.932C126.7 184.681 127.278 186.38 128.804 186.38C130.331 186.38 130.909 184.461 130.909 181.932Z" fill="white"/>
<path d="M135.423 181.932C135.423 179.487 135.881 177.961 136.562 176.89C137.444 175.497 138.921 174.835 140.415 174.835C141.91 174.835 143.353 175.479 144.269 176.906C145.288 178.503 145.39 180.725 145.39 181.932C145.39 184.055 145.049 185.736 144.287 186.94C143.151 188.723 141.436 189.03 140.415 189.03C135.423 189.03 135.423 183.121 135.423 181.932ZM142.52 181.932C142.52 179.113 141.892 177.484 140.415 177.484C138.803 177.484 138.311 179.403 138.311 181.932C138.311 184.681 138.889 186.38 140.415 186.38C141.942 186.38 142.52 184.461 142.52 181.932Z" fill="white"/>
<path d="M162.383 182.05C162.383 182.356 162.266 182.61 161.789 183.034C161.161 183.579 159.888 184.443 157.951 184.443C156.626 184.443 156.218 184.238 154.079 183.118C152.807 182.456 152.296 182.236 151.448 182.236C150.021 182.236 149.173 182.948 148.885 183.204C148.544 183.526 148.461 183.594 148.154 183.594C147.594 183.594 147.102 183.152 147.102 182.558C147.102 182.319 147.118 181.963 148.086 181.251C148.987 180.607 150.191 180.165 151.532 180.165C152.958 180.165 153.568 180.505 155.605 181.573C156.642 182.118 157.1 182.353 157.998 182.353C158.744 182.353 159.697 182.149 160.409 181.521C160.92 181.078 161.019 180.995 161.292 180.995C161.936 180.995 162.378 181.505 162.378 182.047L162.383 182.05Z" fill="white"/>
<path d="M170.991 186.108C171.552 186.108 172.35 186.244 172.35 187.414C172.35 188.315 171.942 188.755 170.991 188.755H164.42C163.281 188.755 162.077 188.755 162.077 187.226C162.077 186.241 162.485 185.919 163.724 184.935C164.692 184.171 166.203 182.812 167.187 181.846C168.172 180.861 168.8 180.147 168.8 179.215C168.8 178.382 168.206 177.481 167.135 177.481C166.863 177.481 166.015 177.531 165.132 178.228C164.488 178.72 164.386 178.806 164.012 178.806C163.145 178.806 162.619 178.076 162.619 177.413C162.619 176.463 164.588 174.832 167.135 174.832C169.682 174.832 171.685 176.513 171.685 179.11C171.685 181.267 170.429 182.608 166.287 186.105H170.989L170.991 186.108Z" fill="white"/>
<path d="M175.761 178.722C175.576 178.859 175.251 179.079 174.913 179.079C174.269 179.079 173.725 178.264 173.725 177.704C173.725 177.246 174.099 176.992 174.455 176.735L176.526 175.327C176.814 175.141 177.256 174.835 177.9 174.835C179.445 174.835 179.445 176.057 179.445 176.534V187.689C179.445 188.268 179.293 189.03 178.018 189.03C176.848 189.03 176.557 188.469 176.557 187.689V178.181L175.759 178.725L175.761 178.722Z" fill="white"/>
<path d="M189.276 178.654C189.276 179.639 188.477 180.353 187.577 180.353C186.676 180.353 185.877 179.607 185.877 178.654C185.877 177.701 186.658 176.958 187.577 176.939C188.459 176.939 189.276 177.652 189.276 178.654ZM189.276 185.956C189.276 186.925 188.495 187.655 187.577 187.655C186.658 187.655 185.877 186.909 185.877 185.956C185.877 185.003 186.658 184.257 187.577 184.257C188.495 184.257 189.276 184.969 189.276 185.956Z" fill="white"/>
<path d="M192.619 181.932C192.619 179.487 193.077 177.961 193.755 176.89C194.637 175.497 196.114 174.835 197.609 174.835C199.104 174.835 200.546 175.479 201.463 176.906C202.481 178.503 202.583 180.725 202.583 181.932C202.583 184.055 202.243 185.736 201.478 186.94C200.342 188.723 198.627 189.03 197.606 189.03C192.614 189.03 192.614 183.121 192.614 181.932H192.619ZM199.716 181.932C199.716 179.113 199.088 177.484 197.611 177.484C195.999 177.484 195.507 179.403 195.507 181.932C195.507 184.681 196.085 186.38 197.611 186.38C199.138 186.38 199.716 184.461 199.716 181.932Z" fill="white"/>
<path d="M204.23 181.932C204.23 179.487 204.688 177.961 205.369 176.89C206.251 175.497 207.728 174.835 209.222 174.835C210.717 174.835 212.16 175.479 213.076 176.906C214.095 178.503 214.197 180.725 214.197 181.932C214.197 184.055 213.856 185.736 213.094 186.94C211.958 188.723 210.243 189.03 209.222 189.03C204.23 189.03 204.23 183.121 204.23 181.932ZM211.327 181.932C211.327 179.113 210.699 177.484 209.222 177.484C207.61 177.484 207.118 179.403 207.118 181.932C207.118 184.681 207.696 186.38 209.222 186.38C210.749 186.38 211.327 184.461 211.327 181.932Z" fill="white"/>
</g>
<g filter="url(#filter13_d_2001_33373)">
<path d="M98.7652 204.13C98.5793 204.267 98.2547 204.486 97.917 204.486C97.2729 204.486 96.7284 203.672 96.7284 203.112C96.7284 202.654 97.1028 202.4 97.4588 202.143L99.5297 200.735C99.8177 200.549 100.26 200.243 100.904 200.243C102.449 200.243 102.449 201.465 102.449 201.942V213.097C102.449 213.676 102.297 214.438 101.022 214.438C99.8517 214.438 99.5611 213.877 99.5611 213.097V203.589L98.7626 204.133L98.7652 204.13Z" fill="white"/>
<path d="M107.763 204.13C107.577 204.266 107.253 204.486 106.915 204.486C106.271 204.486 105.726 203.672 105.726 203.112C105.726 202.654 106.101 202.4 106.457 202.143L108.528 200.735C108.816 200.549 109.258 200.242 109.902 200.242C111.447 200.242 111.447 201.465 111.447 201.942V213.097C111.447 213.676 111.295 214.437 110.02 214.437C108.85 214.437 108.559 213.877 108.559 213.097V203.588L107.761 204.133L107.763 204.13Z" fill="white"/>
<path d="M121.275 204.062C121.275 205.047 120.476 205.761 119.576 205.761C118.675 205.761 117.877 205.015 117.877 204.062C117.877 203.109 118.657 202.366 119.576 202.347C120.458 202.347 121.275 203.06 121.275 204.062ZM121.275 211.364C121.275 212.333 120.495 213.063 119.576 213.063C118.657 213.063 117.877 212.317 117.877 211.364C117.877 210.411 118.657 209.665 119.576 209.665C120.495 209.665 121.275 210.377 121.275 211.364Z" fill="white"/>
<path d="M124.621 207.34C124.621 204.895 125.079 203.368 125.757 202.298C126.639 200.905 128.116 200.242 129.611 200.242C131.106 200.242 132.548 200.886 133.465 202.313C134.483 203.91 134.585 206.133 134.585 207.34C134.585 209.463 134.245 211.144 133.48 212.348C132.344 214.131 130.629 214.437 129.608 214.437C124.616 214.437 124.616 208.528 124.616 207.34H124.621ZM131.716 207.34C131.716 204.52 131.087 202.892 129.611 202.892C127.998 202.892 127.506 204.811 127.506 207.34C127.506 210.089 128.084 211.788 129.611 211.788C131.137 211.788 131.716 209.869 131.716 207.34Z" fill="white"/>
<path d="M136.232 207.34C136.232 204.895 136.69 203.368 137.368 202.298C138.25 200.905 139.727 200.242 141.222 200.242C142.717 200.242 144.159 200.886 145.076 202.313C146.094 203.91 146.196 206.133 146.196 207.34C146.196 209.463 145.856 211.144 145.094 212.348C143.958 214.131 142.243 214.437 141.222 214.437C136.229 214.437 136.229 208.528 136.229 207.34H136.232ZM143.329 207.34C143.329 204.52 142.701 202.892 141.224 202.892C139.612 202.892 139.12 204.811 139.12 207.34C139.12 210.089 139.698 211.788 141.224 211.788C142.751 211.788 143.329 209.869 143.329 207.34Z" fill="white"/>
<path d="M163.192 207.458C163.192 207.764 163.074 208.018 162.598 208.442C161.969 208.987 160.697 209.851 158.76 209.851C157.435 209.851 157.027 209.646 154.888 208.526C153.615 207.864 153.105 207.644 152.257 207.644C150.83 207.644 149.982 208.356 149.694 208.612C149.353 208.934 149.269 209.002 148.963 209.002C148.403 209.002 147.911 208.56 147.911 207.966C147.911 207.727 147.929 207.371 148.895 206.659C149.796 206.015 151 205.573 152.34 205.573C153.767 205.573 154.377 205.913 156.414 206.981C157.451 207.526 157.909 207.761 158.807 207.761C159.553 207.761 160.506 207.557 161.218 206.929C161.729 206.486 161.828 206.403 162.1 206.403C162.744 206.403 163.187 206.913 163.187 207.455L163.192 207.458Z" fill="white"/>
<path d="M171.8 211.516C172.361 211.516 173.159 211.652 173.159 212.822C173.159 213.723 172.751 214.163 171.8 214.163H165.229C164.093 214.163 162.886 214.163 162.886 212.634C162.886 211.649 163.294 211.327 164.533 210.343C165.501 209.578 167.012 208.22 167.996 207.254C168.981 206.269 169.609 205.555 169.609 204.623C169.609 203.79 169.015 202.889 167.944 202.889C167.672 202.889 166.823 202.939 165.941 203.636C165.297 204.128 165.195 204.214 164.821 204.214C163.954 204.214 163.428 203.484 163.428 202.821C163.428 201.871 165.397 200.24 167.944 200.24C170.491 200.24 172.494 201.921 172.494 204.518C172.494 206.675 171.237 208.016 167.096 211.513H171.798L171.8 211.516Z" fill="white"/>
<path d="M176.57 204.13C176.384 204.266 176.06 204.486 175.722 204.486C175.078 204.486 174.533 203.672 174.533 203.112C174.533 202.654 174.908 202.4 175.264 202.143L177.335 200.735C177.623 200.549 178.065 200.242 178.709 200.242C180.254 200.242 180.254 201.465 180.254 201.942V213.097C180.254 213.676 180.102 214.437 178.827 214.437C177.657 214.437 177.366 213.877 177.366 213.097V203.588L176.568 204.133L176.57 204.13Z" fill="white"/>
<path d="M190.084 204.062C190.084 205.047 189.286 205.761 188.385 205.761C187.485 205.761 186.686 205.015 186.686 204.062C186.686 203.109 187.466 202.366 188.385 202.347C189.268 202.347 190.084 203.06 190.084 204.062ZM190.084 211.364C190.084 212.333 189.304 213.063 188.385 213.063C187.466 213.063 186.686 212.317 186.686 211.364C186.686 210.411 187.466 209.665 188.385 209.665C189.304 209.665 190.084 210.377 190.084 211.364Z" fill="white"/>
<path d="M193.428 207.34C193.428 204.895 193.886 203.368 194.564 202.298C195.446 200.905 196.923 200.242 198.418 200.242C199.913 200.242 201.355 200.886 202.271 202.313C203.29 203.91 203.392 206.133 203.392 207.34C203.392 209.463 203.052 211.144 202.287 212.348C201.151 214.131 199.436 214.437 198.415 214.437C193.422 214.437 193.422 208.528 193.422 207.34H193.428ZM200.523 207.34C200.523 204.52 199.894 202.892 198.418 202.892C196.805 202.892 196.313 204.811 196.313 207.34C196.313 210.089 196.891 211.788 198.418 211.788C199.944 211.788 200.523 209.869 200.523 207.34Z" fill="white"/>
<path d="M205.039 207.34C205.039 204.895 205.497 203.368 206.175 202.298C207.057 200.905 208.534 200.242 210.029 200.242C211.524 200.242 212.966 200.886 213.882 202.313C214.901 203.91 215.003 206.133 215.003 207.34C215.003 209.463 214.663 211.144 213.901 212.348C212.765 214.131 211.05 214.437 210.029 214.437C205.036 214.437 205.036 208.528 205.036 207.34H205.039ZM212.136 207.34C212.136 204.52 211.508 202.892 210.031 202.892C208.419 202.892 207.926 204.811 207.926 207.34C207.926 210.089 208.505 211.788 210.031 211.788C211.558 211.788 212.136 209.869 212.136 207.34Z" fill="white"/>
</g>
<g filter="url(#filter14_d_2001_33373)">
<path d="M220.338 186.88C220.522 187.184 220.571 187.265 220.571 187.417C220.571 187.639 220.38 187.922 220.045 187.922C219.783 187.922 219.642 187.781 219.438 187.519C218.721 186.548 217.972 185.05 217.972 183.047C217.972 181.408 218.488 179.78 219.509 178.495C219.66 178.293 219.791 178.17 220.045 178.17C220.38 178.17 220.571 178.453 220.571 178.675C220.571 178.827 220.522 178.898 220.338 179.212C219.611 180.466 219.307 181.709 219.307 183.045C219.307 184.38 219.611 185.623 220.338 186.877V186.88Z" fill="white"/>
<path d="M223.21 186.891C221.825 186.891 221.825 185.969 221.825 185.485V179.395C221.825 178.879 222.069 178.597 222.676 178.597C223.284 178.597 223.545 178.819 223.545 179.395V184.998C223.545 185.241 223.616 185.312 223.86 185.312H225.601C225.904 185.312 226.409 185.372 226.409 186.092C226.409 186.647 226.148 186.891 225.601 186.891H223.213H223.21Z" fill="white"/>
<path d="M229.268 186.04C229.268 186.616 228.802 187.05 228.258 187.05C227.713 187.05 227.237 186.595 227.237 186.04C227.237 185.485 227.703 185.029 228.258 185.029C228.813 185.029 229.268 185.453 229.268 186.04Z" fill="white"/>
<path d="M233.769 178.594C236.104 178.594 237.966 180.335 237.966 182.822C237.966 185.309 236.104 187.05 233.769 187.05C231.434 187.05 229.572 185.341 229.572 182.822C229.572 180.304 231.454 178.594 233.769 178.594ZM233.769 185.474C235.266 185.474 236.248 184.22 236.248 182.825C236.248 181.43 235.277 180.176 233.769 180.176C232.261 180.176 231.292 181.451 231.292 182.825C231.292 184.199 232.274 185.474 233.769 185.474Z" fill="white"/>
<path d="M243.427 185.312C243.762 185.312 244.236 185.393 244.236 186.092C244.236 186.629 243.992 186.891 243.427 186.891H239.513C238.835 186.891 238.117 186.891 238.117 185.98C238.117 185.393 238.361 185.202 239.099 184.613C239.675 184.158 240.576 183.349 241.162 182.773C241.749 182.186 242.123 181.762 242.123 181.204C242.123 180.71 241.769 180.173 241.131 180.173C240.968 180.173 240.463 180.204 239.937 180.618C239.552 180.911 239.492 180.961 239.269 180.961C238.753 180.961 238.439 180.526 238.439 180.131C238.439 179.566 239.612 178.594 241.131 178.594C242.649 178.594 243.84 179.594 243.84 181.144C243.84 182.43 243.092 183.228 240.623 185.312H243.424H243.427Z" fill="white"/>
<path d="M244.621 182.822C244.621 181.367 244.893 180.455 245.299 179.819C245.825 178.989 246.705 178.597 247.595 178.597C248.485 178.597 249.344 178.982 249.891 179.83C250.498 180.78 250.558 182.105 250.558 182.825C250.558 184.089 250.357 185.089 249.901 185.809C249.223 186.872 248.202 187.053 247.595 187.053C244.621 187.053 244.621 183.532 244.621 182.825V182.822ZM248.849 182.822C248.849 181.144 248.474 180.173 247.595 180.173C246.634 180.173 246.341 181.317 246.341 182.822C246.341 184.461 246.684 185.472 247.595 185.472C248.506 185.472 248.849 184.328 248.849 182.822Z" fill="white"/>
<path d="M254.218 180.872C254.218 181.458 253.742 181.882 253.208 181.882C252.673 181.882 252.197 181.437 252.197 180.872C252.197 180.306 252.663 179.861 253.208 179.851C253.734 179.851 254.218 180.275 254.218 180.872ZM254.218 185.22C254.218 185.796 253.752 186.231 253.208 186.231C252.663 186.231 252.197 185.786 252.197 185.22C252.197 184.655 252.663 184.21 253.208 184.21C253.752 184.21 254.218 184.634 254.218 185.22Z" fill="white"/>
<path d="M258.294 183.33C258.153 183.33 257.577 183.32 257.577 182.631C257.577 181.943 258.064 181.914 258.436 181.914C259.124 181.914 259.651 181.61 259.651 181.013C259.651 180.325 258.944 180.173 258.619 180.173C257.972 180.173 257.577 180.385 257.245 180.568C257.153 180.618 257.001 180.699 256.831 180.699C256.407 180.699 256.114 180.275 256.114 179.9C256.114 179.487 256.449 179.293 256.669 179.162C256.93 179 257.608 178.597 258.682 178.597C260.381 178.597 261.363 179.628 261.363 180.872C261.363 181.874 260.745 182.267 260.452 182.461C260.907 182.694 261.818 183.168 261.818 184.524C261.818 185.718 260.918 187.053 258.449 187.053C257.449 187.053 256.82 186.851 256.386 186.668C256.153 186.566 255.86 186.414 255.86 185.99C255.86 185.637 256.082 185.131 256.559 185.131C256.69 185.131 256.742 185.152 257.156 185.283C257.438 185.364 257.784 185.474 258.431 185.474C259.452 185.474 260.101 185.061 260.101 184.322C260.101 183.877 259.776 183.33 258.575 183.33H258.302H258.294Z" fill="white"/>
<path d="M262.371 182.822C262.371 181.367 262.643 180.455 263.049 179.819C263.575 178.989 264.455 178.597 265.345 178.597C266.235 178.597 267.094 178.982 267.641 179.83C268.248 180.78 268.308 182.105 268.308 182.825C268.308 184.089 268.107 185.089 267.651 185.809C266.973 186.872 265.952 187.053 265.345 187.053C262.371 187.053 262.371 183.532 262.371 182.825V182.822ZM266.599 182.822C266.599 181.144 266.224 180.173 265.345 180.173C264.384 180.173 264.091 181.317 264.091 182.822C264.091 184.461 264.434 185.472 265.345 185.472C266.256 185.472 266.599 184.328 266.599 182.822Z" fill="white"/>
<path d="M269.411 179.212C269.227 178.908 269.178 178.827 269.178 178.675C269.178 178.463 269.361 178.17 269.704 178.17C269.966 178.17 270.107 178.311 270.311 178.576C271.272 179.872 271.777 181.437 271.777 183.047C271.777 184.657 271.262 186.304 270.241 187.6C270.089 187.802 269.958 187.925 269.704 187.925C269.361 187.925 269.178 187.631 269.178 187.419C269.178 187.268 269.227 187.197 269.411 186.883C270.12 185.66 270.442 184.424 270.442 183.05C270.442 181.675 270.117 180.44 269.411 179.217V179.212Z" fill="white"/>
</g>
<g filter="url(#filter15_d_2001_33373)">
<path d="M221.561 212.055C221.744 212.359 221.794 212.44 221.794 212.592C221.794 212.814 221.603 213.097 221.268 213.097C221.006 213.097 220.862 212.956 220.66 212.694C219.943 211.723 219.194 210.225 219.194 208.222C219.194 206.583 219.71 204.955 220.731 203.67C220.883 203.468 221.014 203.345 221.268 203.345C221.6 203.345 221.794 203.628 221.794 203.85C221.794 204.002 221.744 204.073 221.561 204.387C220.833 205.641 220.53 206.885 220.53 208.22C220.53 209.555 220.833 210.798 221.561 212.053V212.055Z" fill="white"/>
<path d="M224.433 212.065C223.048 212.065 223.048 211.144 223.048 210.66V204.57C223.048 204.054 223.292 203.771 223.899 203.771C224.506 203.771 224.768 203.994 224.768 204.57V210.173C224.768 210.416 224.839 210.487 225.082 210.487H226.821C227.124 210.487 227.63 210.547 227.63 211.267C227.63 211.822 227.368 212.065 226.821 212.065H224.433Z" fill="white"/>
<path d="M230.491 211.217C230.491 211.793 230.025 212.228 229.481 212.228C228.936 212.228 228.46 211.772 228.46 211.217C228.46 210.662 228.926 210.207 229.481 210.207C230.036 210.207 230.491 210.631 230.491 211.217Z" fill="white"/>
<path d="M234.991 203.771C237.327 203.771 239.188 205.512 239.188 208C239.188 210.487 237.327 212.228 234.991 212.228C232.656 212.228 230.795 210.518 230.795 208C230.795 205.481 232.677 203.771 234.991 203.771ZM234.991 210.649C236.489 210.649 237.468 209.395 237.468 208C237.468 206.604 236.497 205.35 234.991 205.35C233.486 205.35 232.512 206.625 232.512 208C232.512 209.374 233.494 210.649 234.991 210.649Z" fill="white"/>
<path d="M244.652 210.489C244.987 210.489 245.461 210.57 245.461 211.27C245.461 211.806 245.217 212.068 244.652 212.068H240.738C240.06 212.068 239.343 212.068 239.343 211.157C239.343 210.57 239.586 210.379 240.324 209.79C240.9 209.335 241.801 208.526 242.387 207.95C242.974 207.363 243.348 206.939 243.348 206.382C243.348 205.887 242.995 205.35 242.356 205.35C242.194 205.35 241.688 205.382 241.162 205.795C240.777 206.088 240.717 206.138 240.495 206.138C239.979 206.138 239.665 205.704 239.665 205.308C239.665 204.743 240.838 203.771 242.356 203.771C243.874 203.771 245.066 204.772 245.066 206.321C245.066 207.607 244.317 208.405 241.848 210.489H244.649H244.652Z" fill="white"/>
<path d="M245.846 208C245.846 206.544 246.118 205.633 246.524 204.997C247.05 204.167 247.93 203.774 248.82 203.774C249.71 203.774 250.569 204.159 251.116 205.007C251.723 205.958 251.784 207.282 251.784 208.002C251.784 209.267 251.582 210.267 251.127 210.987C250.448 212.05 249.427 212.23 248.82 212.23C245.846 212.23 245.846 208.709 245.846 208.002V208ZM250.071 208C250.071 206.322 249.697 205.35 248.817 205.35C247.857 205.35 247.563 206.494 247.563 208C247.563 209.639 247.906 210.649 248.817 210.649C249.728 210.649 250.071 209.505 250.071 208Z" fill="white"/>
<path d="M255.444 206.047C255.444 206.633 254.967 207.057 254.433 207.057C253.899 207.057 253.422 206.612 253.422 206.047C253.422 205.481 253.888 205.036 254.433 205.026C254.959 205.026 255.444 205.45 255.444 206.047ZM255.444 210.398C255.444 210.974 254.978 211.408 254.433 211.408C253.888 211.408 253.422 210.963 253.422 210.398C253.422 209.832 253.888 209.387 254.433 209.387C254.978 209.387 255.444 209.811 255.444 210.398Z" fill="white"/>
<path d="M259.52 208.505C259.378 208.505 258.803 208.494 258.803 207.806C258.803 207.117 259.287 207.089 259.661 207.089C260.35 207.089 260.876 206.785 260.876 206.188C260.876 205.499 260.169 205.348 259.844 205.348C259.198 205.348 258.803 205.56 258.47 205.743C258.378 205.793 258.227 205.874 258.056 205.874C257.632 205.874 257.339 205.45 257.339 205.075C257.339 204.662 257.674 204.468 257.894 204.337C258.156 204.175 258.834 203.771 259.907 203.771C261.606 203.771 262.588 204.803 262.588 206.047C262.588 207.049 261.97 207.442 261.677 207.636C262.133 207.869 263.044 208.343 263.044 209.699C263.044 210.893 262.143 212.228 259.674 212.228C258.674 212.228 258.046 212.026 257.611 211.843C257.378 211.741 257.085 211.589 257.085 211.165C257.085 210.811 257.308 210.306 257.784 210.306C257.915 210.306 257.967 210.327 258.381 210.458C258.664 210.539 259.009 210.649 259.656 210.649C260.677 210.649 261.326 210.235 261.326 209.497C261.326 209.052 261.002 208.505 259.8 208.505H259.528H259.52Z" fill="white"/>
<path d="M263.596 208C263.596 206.544 263.868 205.633 264.274 204.997C264.8 204.167 265.68 203.774 266.57 203.774C267.46 203.774 268.319 204.159 268.866 205.007C269.474 205.958 269.534 207.282 269.534 208.002C269.534 209.267 269.332 210.267 268.877 210.987C268.199 212.05 267.178 212.23 266.57 212.23C263.596 212.23 263.596 208.709 263.596 208.002V208ZM267.822 208C267.822 206.322 267.447 205.35 266.568 205.35C265.607 205.35 265.314 206.494 265.314 208C265.314 209.639 265.656 210.649 266.568 210.649C267.479 210.649 267.822 209.505 267.822 208Z" fill="white"/>
<path d="M270.633 204.389C270.45 204.086 270.4 204.005 270.4 203.853C270.4 203.641 270.584 203.347 270.927 203.347C271.188 203.347 271.33 203.489 271.534 203.753C272.495 205.049 273 206.615 273 208.225C273 209.835 272.484 211.482 271.463 212.778C271.311 212.979 271.181 213.102 270.927 213.102C270.584 213.102 270.4 212.809 270.4 212.597C270.4 212.445 270.45 212.374 270.633 212.06C271.34 210.838 271.665 209.602 271.665 208.227C271.665 206.853 271.34 205.617 270.633 204.395V204.389Z" fill="white"/>
</g>
<path d="M89.8901 173.049H27.1204V191.184H89.8901V173.049Z" fill="#FE9914"/>
<path d="M41.1111 182.246H44.9492C45.279 182.246 45.8105 182.306 45.8105 183.05C45.8105 183.665 45.622 183.971 44.9492 183.971H41.1111V186.888C41.1111 187.396 40.8991 187.739 40.2132 187.739C39.5744 187.739 39.2681 187.537 39.2681 186.888V183.971H35.4431C35.0897 183.971 34.5818 183.888 34.5818 183.168C34.5818 182.566 34.7598 182.246 35.4431 182.246H39.2681V178.502H35.8672C35.5478 178.502 35.0059 178.442 35.0059 177.735C35.0059 177.144 35.1944 176.827 35.8672 176.827H44.5591C44.8418 176.827 45.4204 176.864 45.4204 177.631C45.4204 178.209 45.2188 178.505 44.5591 178.505H41.1111V182.249V182.246ZM36.4118 181.17C36.294 180.793 36.1762 180.474 36.0348 180.131C35.8463 179.66 35.8096 179.516 35.8096 179.364C35.8096 178.903 36.3647 178.644 36.7888 178.644C37.2129 178.644 37.4145 178.822 37.7208 179.612C37.8753 179.989 38.2758 181.018 38.2758 181.301C38.2758 181.963 37.5323 182.105 37.3071 182.105C36.7155 182.105 36.6212 181.846 36.4092 181.173L36.4118 181.17ZM44.0041 181.382C43.7553 181.914 43.5799 182.139 43.1296 182.139C42.7291 182.139 42.1845 181.927 42.1845 181.382C42.1845 181.134 42.2317 181.029 42.538 180.296C42.6217 180.107 42.915 179.246 42.9856 179.078C43.1035 178.819 43.3155 178.654 43.6585 178.654C44.2501 178.654 44.7109 178.974 44.7109 179.434C44.7109 179.717 44.1088 181.147 44.0014 181.382H44.0041Z" fill="white"/>
<path d="M81.0647 185.728C81.0647 186.979 80.4992 187.346 79.4598 187.346H73.5196C72.4697 187.346 71.9016 186.979 71.9016 185.728V178.536C71.9016 177.285 72.4697 176.931 73.5196 176.931H79.4598C80.4861 176.931 81.0647 177.274 81.0647 178.536V185.728ZM79.1745 181.194V179.081C79.1745 178.798 78.9965 178.68 78.7739 178.68H74.1793C73.8835 178.68 73.7892 178.869 73.7892 179.081V181.194H79.1745ZM73.7918 182.906V185.196C73.7918 185.385 73.8756 185.597 74.1819 185.597H78.7765C79.0122 185.597 79.1771 185.466 79.1771 185.196V182.906H73.7918Z" fill="white"/>
<path d="M89.7697 198.457H27V216.592H89.7697V198.457Z" fill="#FE9914"/>
<path d="M44.7057 204.832C44.9544 204.832 45.567 204.845 45.567 205.706C45.567 206.487 45.1193 206.604 44.7057 206.604H41.4593V210.974H45.2136C45.4963 210.974 46.088 210.997 46.088 211.859C46.088 212.626 45.6508 212.757 45.2136 212.757H35.7546C35.4955 212.757 34.8933 212.746 34.8933 211.872C34.8933 211.105 35.3305 210.974 35.7546 210.974H39.556V206.604H36.3437C36.0714 206.604 35.4693 206.581 35.4693 205.73C35.4693 204.939 35.9405 204.832 36.3437 204.832H39.556V202.612C39.556 202.057 39.933 201.855 40.4409 201.855C40.9959 201.855 41.4567 201.986 41.4567 202.612V204.832H44.703H44.7057Z" fill="white"/>
<path d="M57.1648 211.139C57.1648 212.39 56.5993 212.757 55.5599 212.757H49.6196C48.5698 212.757 48.0017 212.39 48.0017 211.139V203.947C48.0017 202.696 48.5698 202.342 49.6196 202.342H55.5599C56.5862 202.342 57.1648 202.685 57.1648 203.947V211.139ZM55.2746 206.604V204.492C55.2746 204.209 55.0966 204.091 54.874 204.091H50.2794C49.9836 204.091 49.8893 204.28 49.8893 204.492V206.604H55.2746ZM49.8919 208.317V210.607C49.8919 210.796 49.9757 211.008 50.282 211.008H54.8766C55.1123 211.008 55.2772 210.877 55.2772 210.607V208.317H49.8919Z" fill="white"/>
<path d="M62.4088 203.497C62.503 203.497 62.5973 203.497 62.7989 203.58C63.2466 203.769 63.2937 204.277 63.2937 204.549C63.2937 205.188 63.0581 205.848 62.503 206.806C62.5973 206.937 62.7151 207.089 63.1287 207.539C63.6366 208.07 63.744 208.188 63.744 208.471C63.744 208.895 63.3199 209.298 62.9062 209.298C62.6104 209.298 62.469 209.073 62.1967 208.649V212.275C62.1967 212.89 61.948 213.149 61.2516 213.149C60.4374 213.149 60.4243 212.524 60.4243 212.275V209.311C60.2463 209.453 60.0814 209.57 59.8222 209.57C59.3012 209.57 58.9006 209.063 58.9006 208.568C58.9006 208.073 59.1598 207.895 59.7855 207.363C60.7778 206.536 61.3432 205.463 61.3432 205.355C61.3432 205.214 61.2019 205.201 61.1548 205.201H59.8667C59.2986 205.201 59.0054 204.976 59.0054 204.316C59.0054 203.502 59.6677 203.502 59.8667 203.502H60.4217V202.735C60.4217 202.086 60.7175 201.86 61.3668 201.86C62.1705 201.86 62.1941 202.462 62.1941 202.735V203.502H62.4062L62.4088 203.497ZM68.137 210.783C68.137 211.207 68.2313 211.254 68.4433 211.254C68.6083 211.254 68.7627 211.254 68.7863 210.534C68.8229 209.801 68.8334 209.424 69.5193 209.424C70.2393 209.424 70.2864 209.861 70.2864 210.332C70.2864 210.864 70.2157 212.152 69.9435 212.589C69.6712 213.026 69.1764 213.026 68.3726 213.026C66.8385 213.026 66.5662 212.885 66.5662 211.55V207.678H65.9981C65.951 209.827 65.4064 211.018 64.8881 211.822C64.6629 212.165 64.0136 213.05 63.401 213.05C62.9402 213.05 62.4795 212.579 62.4795 212.141C62.4795 211.835 62.5397 211.788 63.4481 210.877C64.2754 210.063 64.4168 208.892 64.4875 207.641C63.6602 207.463 63.5555 206.814 63.5555 206.235V203.614C63.5555 202.481 64.0869 202.185 64.9849 202.185H68.4931C69.3911 202.185 69.933 202.481 69.933 203.614V206.235C69.933 207.345 69.4251 207.675 68.4931 207.675H68.1396V210.78L68.137 210.783ZM68.1711 204.169C68.1711 203.944 68.0532 203.84 67.8412 203.84H65.6106C65.3855 203.84 65.2808 203.957 65.2808 204.169V205.764C65.2808 205.989 65.3986 206.094 65.6106 206.094H67.8412C68.0532 206.094 68.1711 205.986 68.1711 205.764V204.169Z" fill="white"/>
<path d="M81.3528 211.139C81.3528 212.39 80.7873 212.757 79.7479 212.757H73.8076C72.7578 212.757 72.1897 212.39 72.1897 211.139V203.947C72.1897 202.696 72.7578 202.342 73.8076 202.342H79.7479C80.7742 202.342 81.3528 202.685 81.3528 203.947V211.139ZM79.4626 206.604V204.492C79.4626 204.209 79.2845 204.091 79.062 204.091H74.4674C74.1715 204.091 74.0773 204.28 74.0773 204.492V206.604H79.4626ZM74.0773 208.317V210.607C74.0773 210.796 74.1611 211.008 74.4674 211.008H79.062C79.2976 211.008 79.4626 210.877 79.4626 210.607V208.317H74.0773Z" fill="white"/>
</g>
<defs>
<filter id="filter0_d_2001_33373" x="17.4552" y="36.3619" width="92.8179" height="35.1588" filterUnits="userSpaceOnUse" color-interpolation-filters="sRGB">
<feFlood flood-opacity="0" result="BackgroundImageFix"/>
<feColorMatrix in="SourceAlpha" type="matrix" values="0 0 0 0 0 0 0 0 0 0 0 0 0 0 0 0 0 0 127 0" result="hardAlpha"/>
<feOffset/>
<feGaussianBlur stdDeviation="3.7795"/>
<feColorMatrix type="matrix" values="0 0 0 0 0 0 0 0 0 0 0 0 0 0 0 0 0 0 0.8 0"/>
<feBlend mode="normal" in2="BackgroundImageFix" result="effect1_dropShadow_2001_33373"/>
<feBlend mode="normal" in="SourceGraphic" in2="effect1_dropShadow_2001_33373" result="shape"/>
</filter>
<filter id="filter1_d_2001_33373" x="19.2282" y="62.6844" width="30.2355" height="50.94" filterUnits="userSpaceOnUse" color-interpolation-filters="sRGB">
<feFlood flood-opacity="0" result="BackgroundImageFix"/>
<feColorMatrix in="SourceAlpha" type="matrix" values="0 0 0 0 0 0 0 0 0 0 0 0 0 0 0 0 0 0 127 0" result="hardAlpha"/>
<feOffset/>
<feGaussianBlur stdDeviation="3.7795"/>
<feColorMatrix type="matrix" values="0 0 0 0 0 0 0 0 0 0 0 0 0 0 0 0 0 0 0.8 0"/>
<feBlend mode="normal" in2="BackgroundImageFix" result="effect1_dropShadow_2001_33373"/>
<feBlend mode="normal" in="SourceGraphic" in2="effect1_dropShadow_2001_33373" result="shape"/>
</filter>
<filter id="filter2_d_2001_33373" x="45.4547" y="79.5614" width="32.6716" height="34.4615" filterUnits="userSpaceOnUse" color-interpolation-filters="sRGB">
<feFlood flood-opacity="0" result="BackgroundImageFix"/>
<feColorMatrix in="SourceAlpha" type="matrix" values="0 0 0 0 0 0 0 0 0 0 0 0 0 0 0 0 0 0 127 0" result="hardAlpha"/>
<feOffset/>
<feGaussianBlur stdDeviation="3.7795"/>
<feColorMatrix type="matrix" values="0 0 0 0 0 0 0 0 0 0 0 0 0 0 0 0 0 0 0.8 0"/>
<feBlend mode="normal" in2="BackgroundImageFix" result="effect1_dropShadow_2001_33373"/>
<feBlend mode="normal" in="SourceGraphic" in2="effect1_dropShadow_2001_33373" result="shape"/>
</filter>
<filter id="filter3_d_2001_33373" x="70.2163" y="62.6771" width="67.3701" height="50.9481" filterUnits="userSpaceOnUse" color-interpolation-filters="sRGB">
<feFlood flood-opacity="0" result="BackgroundImageFix"/>
<feColorMatrix in="SourceAlpha" type="matrix" values="0 0 0 0 0 0 0 0 0 0 0 0 0 0 0 0 0 0 127 0" result="hardAlpha"/>
<feOffset/>
<feGaussianBlur stdDeviation="3.7795"/>
<feColorMatrix type="matrix" values="0 0 0 0 0 0 0 0 0 0 0 0 0 0 0 0 0 0 0.8 0"/>
<feBlend mode="normal" in2="BackgroundImageFix" result="effect1_dropShadow_2001_33373"/>
<feBlend mode="normal" in="SourceGraphic" in2="effect1_dropShadow_2001_33373" result="shape"/>
</filter>
<filter id="filter4_d_2001_33373" x="127.171" y="79.6224" width="31.6463" height="33.6802" filterUnits="userSpaceOnUse" color-interpolation-filters="sRGB">
<feFlood flood-opacity="0" result="BackgroundImageFix"/>
<feColorMatrix in="SourceAlpha" type="matrix" values="0 0 0 0 0 0 0 0 0 0 0 0 0 0 0 0 0 0 127 0" result="hardAlpha"/>
<feOffset/>
<feGaussianBlur stdDeviation="3.7795"/>
<feColorMatrix type="matrix" values="0 0 0 0 0 0 0 0 0 0 0 0 0 0 0 0 0 0 0.8 0"/>
<feBlend mode="normal" in2="BackgroundImageFix" result="effect1_dropShadow_2001_33373"/>
<feBlend mode="normal" in="SourceGraphic" in2="effect1_dropShadow_2001_33373" result="shape"/>
</filter>
<filter id="filter5_d_2001_33373" x="173.457" y="77.63" width="39.7584" height="22.168" filterUnits="userSpaceOnUse" color-interpolation-filters="sRGB">
<feFlood flood-opacity="0" result="BackgroundImageFix"/>
<feColorMatrix in="SourceAlpha" type="matrix" values="0 0 0 0 0 0 0 0 0 0 0 0 0 0 0 0 0 0 127 0" result="hardAlpha"/>
<feOffset/>
<feGaussianBlur stdDeviation="3.7795"/>
<feColorMatrix type="matrix" values="0 0 0 0 0 0 0 0 0 0 0 0 0 0 0 0 0 0 0.8 0"/>
<feBlend mode="normal" in2="BackgroundImageFix" result="effect1_dropShadow_2001_33373"/>
<feBlend mode="normal" in="SourceGraphic" in2="effect1_dropShadow_2001_33373" result="shape"/>
</filter>
<filter id="filter6_d_2001_33373" x="17.8562" y="110.48" width="41.591" height="50.2659" filterUnits="userSpaceOnUse" color-interpolation-filters="sRGB">
<feFlood flood-opacity="0" result="BackgroundImageFix"/>
<feColorMatrix in="SourceAlpha" type="matrix" values="0 0 0 0 0 0 0 0 0 0 0 0 0 0 0 0 0 0 127 0" result="hardAlpha"/>
<feOffset/>
<feGaussianBlur stdDeviation="3.7795"/>
<feColorMatrix type="matrix" values="0 0 0 0 0 0 0 0 0 0 0 0 0 0 0 0 0 0 0.8 0"/>
<feBlend mode="normal" in2="BackgroundImageFix" result="effect1_dropShadow_2001_33373"/>
<feBlend mode="normal" in="SourceGraphic" in2="effect1_dropShadow_2001_33373" result="shape"/>
</filter>
<filter id="filter7_d_2001_33373" x="49.3708" y="127.365" width="32.6716" height="34.4615" filterUnits="userSpaceOnUse" color-interpolation-filters="sRGB">
<feFlood flood-opacity="0" result="BackgroundImageFix"/>
<feColorMatrix in="SourceAlpha" type="matrix" values="0 0 0 0 0 0 0 0 0 0 0 0 0 0 0 0 0 0 127 0" result="hardAlpha"/>
<feOffset/>
<feGaussianBlur stdDeviation="3.7795"/>
<feColorMatrix type="matrix" values="0 0 0 0 0 0 0 0 0 0 0 0 0 0 0 0 0 0 0.8 0"/>
<feBlend mode="normal" in2="BackgroundImageFix" result="effect1_dropShadow_2001_33373"/>
<feBlend mode="normal" in="SourceGraphic" in2="effect1_dropShadow_2001_33373" result="shape"/>
</filter>
<filter id="filter8_d_2001_33373" x="72.0433" y="110.48" width="41.591" height="50.2659" filterUnits="userSpaceOnUse" color-interpolation-filters="sRGB">
<feFlood flood-opacity="0" result="BackgroundImageFix"/>
<feColorMatrix in="SourceAlpha" type="matrix" values="0 0 0 0 0 0 0 0 0 0 0 0 0 0 0 0 0 0 127 0" result="hardAlpha"/>
<feOffset/>
<feGaussianBlur stdDeviation="3.7795"/>
<feColorMatrix type="matrix" values="0 0 0 0 0 0 0 0 0 0 0 0 0 0 0 0 0 0 0.8 0"/>
<feBlend mode="normal" in2="BackgroundImageFix" result="effect1_dropShadow_2001_33373"/>
<feBlend mode="normal" in="SourceGraphic" in2="effect1_dropShadow_2001_33373" result="shape"/>
</filter>
<filter id="filter9_d_2001_33373" x="104.853" y="127.426" width="31.6463" height="33.6802" filterUnits="userSpaceOnUse" color-interpolation-filters="sRGB">
<feFlood flood-opacity="0" result="BackgroundImageFix"/>
<feColorMatrix in="SourceAlpha" type="matrix" values="0 0 0 0 0 0 0 0 0 0 0 0 0 0 0 0 0 0 127 0" result="hardAlpha"/>
<feOffset/>
<feGaussianBlur stdDeviation="3.7795"/>
<feColorMatrix type="matrix" values="0 0 0 0 0 0 0 0 0 0 0 0 0 0 0 0 0 0 0.8 0"/>
<feBlend mode="normal" in2="BackgroundImageFix" result="effect1_dropShadow_2001_33373"/>
<feBlend mode="normal" in="SourceGraphic" in2="effect1_dropShadow_2001_33373" result="shape"/>
</filter>
<filter id="filter10_d_2001_33373" x="147.754" y="78.4351" width="36.9655" height="36.8287" filterUnits="userSpaceOnUse" color-interpolation-filters="sRGB">
<feFlood flood-opacity="0" result="BackgroundImageFix"/>
<feColorMatrix in="SourceAlpha" type="matrix" values="0 0 0 0 0 0 0 0 0 0 0 0 0 0 0 0 0 0 127 0" result="hardAlpha"/>
<feOffset/>
<feGaussianBlur stdDeviation="3.7795"/>
<feColorMatrix type="matrix" values="0 0 0 0 0 0 0 0 0 0 0 0 0 0 0 0 0 0 0.8 0"/>
<feBlend mode="normal" in2="BackgroundImageFix" result="effect1_dropShadow_2001_33373"/>
<feBlend mode="normal" in="SourceGraphic" in2="effect1_dropShadow_2001_33373" result="shape"/>
</filter>
<filter id="filter11_d_2001_33373" x="125.822" y="126.239" width="36.9655" height="36.8287" filterUnits="userSpaceOnUse" color-interpolation-filters="sRGB">
<feFlood flood-opacity="0" result="BackgroundImageFix"/>
<feColorMatrix in="SourceAlpha" type="matrix" values="0 0 0 0 0 0 0 0 0 0 0 0 0 0 0 0 0 0 127 0" result="hardAlpha"/>
<feOffset/>
<feGaussianBlur stdDeviation="3.7795"/>
<feColorMatrix type="matrix" values="0 0 0 0 0 0 0 0 0 0 0 0 0 0 0 0 0 0 0.8 0"/>
<feBlend mode="normal" in2="BackgroundImageFix" result="effect1_dropShadow_2001_33373"/>
<feBlend mode="normal" in="SourceGraphic" in2="effect1_dropShadow_2001_33373" result="shape"/>
</filter>
<filter id="filter12_d_2001_33373" x="90.7774" y="170.591" width="127.661" height="22.6803" filterUnits="userSpaceOnUse" color-interpolation-filters="sRGB">
<feFlood flood-opacity="0" result="BackgroundImageFix"/>
<feColorMatrix in="SourceAlpha" type="matrix" values="0 0 0 0 0 0 0 0 0 0 0 0 0 0 0 0 0 0 127 0" result="hardAlpha"/>
<feOffset/>
<feGaussianBlur stdDeviation="2.12069"/>
<feComposite in2="hardAlpha" operator="out"/>
<feColorMatrix type="matrix" values="0 0 0 0 0 0 0 0 0 0 0 0 0 0 0 0 0 0 0.75 0"/>
<feBlend mode="normal" in2="BackgroundImageFix" result="effect1_dropShadow_2001_33373"/>
<feBlend mode="normal" in="SourceGraphic" in2="effect1_dropShadow_2001_33373" result="shape"/>
</filter>
<filter id="filter13_d_2001_33373" x="92.487" y="195.999" width="126.757" height="22.6803" filterUnits="userSpaceOnUse" color-interpolation-filters="sRGB">
<feFlood flood-opacity="0" result="BackgroundImageFix"/>
<feColorMatrix in="SourceAlpha" type="matrix" values="0 0 0 0 0 0 0 0 0 0 0 0 0 0 0 0 0 0 127 0" result="hardAlpha"/>
<feOffset/>
<feGaussianBlur stdDeviation="2.12069"/>
<feComposite in2="hardAlpha" operator="out"/>
<feColorMatrix type="matrix" values="0 0 0 0 0 0 0 0 0 0 0 0 0 0 0 0 0 0 0.75 0"/>
<feBlend mode="normal" in2="BackgroundImageFix" result="effect1_dropShadow_2001_33373"/>
<feBlend mode="normal" in="SourceGraphic" in2="effect1_dropShadow_2001_33373" result="shape"/>
</filter>
<filter id="filter14_d_2001_33373" x="213.73" y="173.929" width="62.2883" height="18.2374" filterUnits="userSpaceOnUse" color-interpolation-filters="sRGB">
<feFlood flood-opacity="0" result="BackgroundImageFix"/>
<feColorMatrix in="SourceAlpha" type="matrix" values="0 0 0 0 0 0 0 0 0 0 0 0 0 0 0 0 0 0 127 0" result="hardAlpha"/>
<feOffset/>
<feGaussianBlur stdDeviation="2.12069"/>
<feComposite in2="hardAlpha" operator="out"/>
<feColorMatrix type="matrix" values="0 0 0 0 0 0 0 0 0 0 0 0 0 0 0 0 0 0 0.75 0"/>
<feBlend mode="normal" in2="BackgroundImageFix" result="effect1_dropShadow_2001_33373"/>
<feBlend mode="normal" in="SourceGraphic" in2="effect1_dropShadow_2001_33373" result="shape"/>
</filter>
<filter id="filter15_d_2001_33373" x="214.953" y="199.104" width="62.2885" height="18.2398" filterUnits="userSpaceOnUse" color-interpolation-filters="sRGB">
<feFlood flood-opacity="0" result="BackgroundImageFix"/>
<feColorMatrix in="SourceAlpha" type="matrix" values="0 0 0 0 0 0 0 0 0 0 0 0 0 0 0 0 0 0 127 0" result="hardAlpha"/>
<feOffset/>
<feGaussianBlur stdDeviation="2.12069"/>
<feComposite in2="hardAlpha" operator="out"/>
<feColorMatrix type="matrix" values="0 0 0 0 0 0 0 0 0 0 0 0 0 0 0 0 0 0 0.75 0"/>
<feBlend mode="normal" in2="BackgroundImageFix" result="effect1_dropShadow_2001_33373"/>
<feBlend mode="normal" in="SourceGraphic" in2="effect1_dropShadow_2001_33373" result="shape"/>
</filter>
<radialGradient id="paint0_radial_2001_33373" cx="0" cy="0" r="1" gradientUnits="userSpaceOnUse" gradientTransform="translate(115.5 115.5) rotate(90) scale(115.5)">
<stop stop-opacity="0.5"/>
<stop offset="1" stop-opacity="0"/>
</radialGradient>
<clipPath id="clip0_2001_33373">
<rect width="246" height="43.543" fill="white" transform="translate(27 173.049)"/>
</clipPath>
</defs>
</svg>
