<svg width="253" height="252" viewBox="0 0 253 252" fill="none" xmlns="http://www.w3.org/2000/svg">
<g clip-path="url(#clip0_2188_314)">
<path d="M176.717 18.1476L85.8725 14.5361L19.0827 76.2223L15.4712 167.063L77.1574 233.852L167.998 237.464L234.788 175.782L238.399 84.9374L176.717 18.1476Z" fill="white"/>
<g filter="url(#filter0_d_2188_314)">
<path d="M128.268 1.12346L53.4227 25.0469C47.4377 26.9613 42.4571 31.1713 39.5794 36.7545L3.57116 106.602C0.693455 112.186 0.148249 118.687 2.06262 124.672L25.9861 199.517C27.9005 205.502 32.1104 210.483 37.6937 213.36L107.537 249.369C113.121 252.246 119.622 252.791 125.607 250.877L200.452 226.954C206.437 225.039 211.418 220.829 214.295 215.242L250.304 145.402C253.181 139.819 253.726 133.317 251.812 127.333L227.889 52.4876C225.974 46.5026 221.764 41.522 216.177 38.6443L146.337 2.6361C140.754 -0.241604 134.253 -0.78681 128.268 1.12756M227.298 182.308L175.102 230.516C170.486 234.779 164.366 237.034 158.086 236.784L87.0902 233.963C80.8101 233.713 74.8907 230.979 70.6274 226.363L22.4197 174.167C18.1564 169.551 15.9018 163.431 16.1519 157.151L18.9722 86.1551C19.2223 79.8791 21.9565 73.9556 26.5723 69.6923L78.7686 21.4847C83.3844 17.2214 89.5047 14.9668 95.7848 15.2168L166.78 18.0371C173.056 18.2872 178.98 21.0214 183.243 25.6372L231.451 77.8335C235.714 82.4493 237.969 88.5696 237.719 94.8497L234.898 165.845C234.648 172.121 231.914 178.045 227.298 182.308Z" fill="#E53101"/>
</g>
<path d="M167.211 17.7624L95.3829 14.9093C89.2954 14.6674 83.3555 16.8523 78.8791 20.9885L26.0679 69.7619C21.5915 73.8981 18.9392 79.6412 18.6974 85.7287L15.8402 157.556C15.5983 163.644 17.7832 169.584 21.9194 174.06L70.6928 226.871C74.829 231.348 80.5721 234 86.6596 234.242L158.487 237.099C164.575 237.341 170.515 235.152 174.991 231.02L227.802 182.247C232.279 178.11 234.931 172.367 235.173 166.28L238.03 94.452C238.272 88.3645 236.083 82.4287 231.951 77.9482L183.177 25.137C179.041 20.6606 173.298 18.0083 167.211 17.7665M196.021 206.941L136.142 232.016C130.522 234.369 124.197 234.394 118.556 232.086L58.4851 207.474C52.8445 205.162 48.3558 200.706 46.0028 195.086L20.9274 135.203C18.5744 129.583 18.5498 123.254 20.8577 117.617L45.4699 57.546C47.7819 51.9054 52.2378 47.4167 57.8579 45.0637L117.736 19.9883C123.356 17.6353 129.686 17.6107 135.322 19.9186L195.393 44.5307C201.034 46.8428 205.523 51.2987 207.876 56.9188L232.951 116.797C235.304 122.417 235.329 128.747 233.021 134.383L208.409 194.454C206.097 200.095 201.641 204.584 196.021 206.937" fill="#FF9901"/>
<path d="M146.062 63.49H74.2961C74.2961 63.49 74.6363 77.4235 74.6363 86.0976C74.6363 94.7717 72.2546 103.966 72.2546 103.966C72.2546 103.966 85.6962 106.295 93.2389 106.295C102.044 106.295 108.267 105.491 108.267 105.491L109.111 98.6045L110.489 105.491C110.489 105.491 121.335 104.467 129.034 104.467C136.732 104.467 144.46 105.491 144.46 105.491L145.12 98.0716L145.78 105.491C145.78 105.491 153.24 106.295 163.878 106.295C174.516 106.295 180.972 105.491 180.972 105.491C180.972 105.491 179.336 96.8746 179.336 87.8849C179.336 78.8951 179.75 63.49 179.75 63.49H146.067H146.062Z" fill="#E53101"/>
<path d="M69.4712 61.2722H184.563" stroke="black" stroke-width="4.59" stroke-miterlimit="10" stroke-linecap="round"/>
<path d="M80.5679 59.5833H76.4194V67.294H80.5679V59.5833Z" fill="black"/>
<path d="M79.5268 64.3672L79.0349 64.8591" stroke="white" stroke-width="1.84" stroke-miterlimit="10" stroke-linecap="round"/>
<path d="M77.5059 64.3179L77.9978 64.8098" stroke="white" stroke-width="1.84" stroke-miterlimit="10" stroke-linecap="round"/>
<path d="M77.4565 66.3349L77.9485 65.843" stroke="white" stroke-width="1.84" stroke-miterlimit="10" stroke-linecap="round"/>
<path d="M79.4736 66.3882L78.9817 65.8962" stroke="white" stroke-width="1.84" stroke-miterlimit="10" stroke-linecap="round"/>
<path d="M113.239 59.5833H109.091V67.294H113.239V59.5833Z" fill="black"/>
<path d="M112.198 64.3672L111.706 64.8591" stroke="white" stroke-width="1.84" stroke-miterlimit="10" stroke-linecap="round"/>
<path d="M110.181 64.3179L110.673 64.8098" stroke="white" stroke-width="1.84" stroke-miterlimit="10" stroke-linecap="round"/>
<path d="M110.128 66.3349L110.62 65.843" stroke="white" stroke-width="1.84" stroke-miterlimit="10" stroke-linecap="round"/>
<path d="M112.149 66.3882L111.657 65.8962" stroke="white" stroke-width="1.84" stroke-miterlimit="10" stroke-linecap="round"/>
<path d="M147.522 59.5833H143.373V67.294H147.522V59.5833Z" fill="black"/>
<path d="M146.481 64.3672L145.989 64.8591" stroke="white" stroke-width="1.84" stroke-miterlimit="10" stroke-linecap="round"/>
<path d="M144.46 64.3179L144.952 64.8098" stroke="white" stroke-width="1.84" stroke-miterlimit="10" stroke-linecap="round"/>
<path d="M144.41 66.3349L144.902 65.843" stroke="white" stroke-width="1.84" stroke-miterlimit="10" stroke-linecap="round"/>
<path d="M146.427 66.3882L145.935 65.8962" stroke="white" stroke-width="1.84" stroke-miterlimit="10" stroke-linecap="round"/>
<path d="M177.619 59.5833H173.47V67.294H177.619V59.5833Z" fill="black"/>
<path d="M176.578 64.3672L176.086 64.8591" stroke="white" stroke-width="1.84" stroke-miterlimit="10" stroke-linecap="round"/>
<path d="M174.557 64.3179L175.049 64.8098" stroke="white" stroke-width="1.84" stroke-miterlimit="10" stroke-linecap="round"/>
<path d="M174.507 66.3349L174.999 65.843" stroke="white" stroke-width="1.84" stroke-miterlimit="10" stroke-linecap="round"/>
<path d="M176.524 66.3882L176.032 65.8962" stroke="white" stroke-width="1.84" stroke-miterlimit="10" stroke-linecap="round"/>
<path d="M109.161 130.542C110.718 130.542 113.641 130.792 113.641 134.526C113.641 136.769 113.079 139.007 109.345 139.007H108.287V145.045H110.837C112.829 145.045 115.318 145.48 115.318 149.03C115.318 152.018 114.383 153.576 110.837 153.576H108.287V159.864H109.468C112.206 159.864 113.764 161.233 113.764 163.849C113.764 166.714 112.768 168.329 109.284 168.329H61.9121C60.7315 168.329 57.366 168.268 57.366 164.283C57.366 161.045 58.9237 159.864 61.9121 159.864H65.085V153.576H60.3544C59.1082 153.576 55.8738 153.514 55.8738 149.591C55.8738 146.664 56.87 145.045 60.3544 145.045H65.7695V141.122C62.5311 144.049 61.4735 144.484 60.1043 144.484C57.366 144.484 55.6238 141.618 55.6238 139.63C55.6238 137.826 56.0583 137.453 59.8584 134.399C62.1622 132.53 63.6543 130.665 65.7736 128.05C67.2658 126.246 68.7005 126.246 69.258 126.246C71.3118 126.246 74.5502 127.738 74.1157 130.542H109.161ZM69.754 172.498C69.754 173.806 69.258 175.425 67.8889 178.348C64.716 185.132 63.3427 185.444 61.4776 185.444C59.1123 185.444 56.0624 183.763 56.0624 180.836C56.0624 179.717 56.1854 179.528 58.3047 176.356C59.0508 175.237 59.7969 173.74 61.1701 170.879C61.7317 169.76 62.5393 168.702 64.7816 168.702C65.6547 168.702 69.7622 169.137 69.7622 172.498H69.754ZM82.5151 172.498C82.7037 174.179 83.0112 178.348 83.0112 180.963C83.0112 182.644 83.0112 185.571 78.092 185.571C75.9768 185.571 73.4229 185.075 73.4229 181.402C73.4229 180.656 73.4844 177.294 73.4844 176.548C73.2958 172.068 73.3614 171.695 73.9189 170.76C74.8536 169.329 76.6573 169.079 77.9034 169.079C80.7033 169.079 82.261 170.076 82.511 172.502L82.5151 172.498ZM77.7231 139.007H73.8656V145.045H77.7231V139.007ZM77.7231 153.576H73.8656V159.864H77.7231V153.576ZM88.865 139.007H84.9419V145.045H88.865V139.007ZM88.865 153.576H84.9419V159.864H88.865V153.576ZM97.3341 174.802C97.8957 176.544 98.8877 179.656 98.8877 181.275C98.8877 185.071 93.9686 185.136 93.3496 185.136C89.6151 185.136 89.3036 183.144 88.742 179.906C88.5534 178.721 87.1842 173.494 87.1842 172.375C87.1842 169.575 90.4842 169.014 92.1649 169.014C95.4033 169.014 95.7149 169.948 97.3341 174.802ZM100.011 139.007H96.0264V145.045H100.011V139.007ZM100.011 153.576H96.0264V159.864H100.011V153.576ZM112.272 173.994C113.33 175.737 115.133 178.975 115.133 180.594C115.133 184.079 110.964 185.075 109.407 185.075C106.791 185.075 106.418 184.267 104.241 179.41C103.93 178.664 102.311 175.487 101.999 174.863C101.749 174.367 101.437 173.494 101.437 172.687C101.437 169.514 105.299 168.702 106.357 168.702C109.222 168.702 109.284 168.891 112.272 173.994Z" fill="black"/>
<path d="M170.232 172.187C167.616 172.683 165.624 171.252 165.374 167.706C164.378 169.51 162.759 170.194 161.578 170.194C159.647 170.194 158.405 168.264 157.344 166.21V181.336C157.344 184.821 155.724 185.882 152.551 185.882C148.444 185.882 148.378 182.583 148.378 181.336V170.006C146.263 173.99 144.833 175.856 142.775 175.856C140.409 175.856 137.917 173.367 137.917 170.44C137.917 168.821 138.229 168.448 141.028 165.025C142.459 163.283 146.07 158.364 148.313 153.945H143.144C139.782 153.945 138.474 152.576 138.474 149.464C138.474 145.418 142.024 145.418 143.144 145.418H148.374V130.854C148.374 127.492 149.932 126.307 153.166 126.307C157.212 126.307 157.335 129.546 157.335 130.854V145.418H161.754C164.993 145.418 166.362 146.787 166.362 149.899C166.362 153.945 162.751 153.945 161.754 153.945H157.52C159.073 156.31 160.693 158.675 162.562 160.791C165.239 163.718 165.489 164.029 165.739 165.025C166.112 164.341 166.485 163.533 168.727 163.094L182.858 160.418V130.722C182.858 126.799 184.6 126.115 188.211 126.115C191.823 126.115 192.63 128.107 192.63 130.661V158.61C193.315 158.421 193.688 158.36 194.184 158.36C197.857 158.36 198.107 162.467 198.107 163.775C198.107 165.767 197.484 167.136 194.495 167.637L192.63 167.948V181.082C192.63 181.828 192.63 183.759 191.2 184.878C190.454 185.501 188.15 185.686 187.215 185.686C183.731 185.686 182.858 183.693 182.858 181.078V169.809L170.219 172.174L170.232 172.187ZM145.517 132.534C146.202 134.526 147.448 139.257 147.448 140.626C147.448 142.93 144.894 143.738 143.279 143.738C141.102 143.738 140.725 142.18 140.29 140.065C139.794 137.822 139.606 137.199 138.921 135.084C138.36 133.465 138.298 133.03 138.298 132.596C138.298 130.603 140.725 129.669 142.406 129.669C144.398 129.669 144.894 130.788 145.517 132.534ZM167.678 132.784C167.678 133.903 166.805 137.826 165.747 140.626C164.94 142.93 164.128 143.799 162.57 143.799C160.889 143.799 158.463 142.741 158.463 140.626C158.463 139.942 158.586 139.442 159.024 138.072C159.586 136.269 159.959 134.522 160.455 132.346C160.705 131.411 161.078 129.607 163.382 129.607C166.432 129.607 167.678 131.288 167.678 132.78V132.784ZM177.824 149.218C179.939 150.961 180.751 151.834 180.751 153.387C180.751 156.003 178.324 158.552 175.958 158.552C174.466 158.552 174.089 158.179 171.039 155.38C170.605 154.945 168.551 153.203 168.112 152.764C167.616 152.33 167.116 151.645 167.116 150.399C167.116 147.845 169.232 145.607 171.535 145.607C173.278 145.607 174.585 146.48 177.824 149.218ZM178.447 132.473C181.558 135.15 182.431 135.834 182.431 137.765C182.431 140.319 180.316 142.684 177.824 142.684C176.393 142.684 176.02 142.373 172.843 139.323C172.347 138.888 170.166 136.957 169.793 136.523C169.297 135.838 169.109 135.154 169.109 134.408C169.109 131.792 171.285 129.927 173.466 129.927C175.147 129.927 176.393 130.735 178.447 132.481V132.473Z" fill="black"/>
<path d="M91.2424 77.9072C90.8202 77.9072 89.7216 77.8826 89.7216 76.4355C89.7216 75.1729 90.5414 74.9639 91.2424 74.9639H96.1001C97.9939 74.9639 98.9737 75.3615 99.1827 77.9523C99.4164 81.1538 100.048 87.4831 106.307 91.9677C106.541 92.1317 107.754 92.8573 107.968 93.0418C108.271 93.3451 108.341 93.7427 108.341 94.001C108.341 94.9356 107.615 95.8703 106.635 95.8703C105.656 95.8703 104.508 94.8659 103.577 94.0707C101.966 92.7138 98.8794 89.7951 97.5717 84.3062C97.1495 85.8721 96.2148 89.3524 93.1814 92.4843C91.6605 94.0502 89.1395 95.8703 88.1597 95.8703C87.2702 95.8703 86.4995 95.0053 86.4995 94.0461C86.4995 93.3205 86.9217 92.9967 87.553 92.6441C94.6325 88.6473 95.9402 81.3137 95.9402 78.768C95.9402 77.9277 95.5426 77.9031 94.8662 77.9031H91.2465L91.2424 77.9072Z" fill="white"/>
<path d="M125.353 89.004C124.816 89.5164 122.946 91.2709 121.778 91.2709C121.102 91.2709 120.868 90.8282 120.749 90.6151C120.023 90.8938 116.777 92.1113 116.24 92.1113C114.932 92.1113 114.932 90.5003 114.932 90.4511C114.932 89.6804 115.469 89.4222 115.936 89.2828C116.195 89.1885 117.338 88.8852 117.547 88.8155V82.2976H116.449C115.399 82.2976 115.096 81.6212 115.096 80.8956C115.096 80.0061 115.539 79.4691 116.449 79.4691H117.547V75.4969C117.547 75.1484 117.547 74.0703 118.949 74.0703C120.187 74.0703 120.351 74.8656 120.351 75.4969V79.4691H121.331C121.589 79.4691 122.43 79.6085 122.43 80.7317C122.43 81.7606 122.057 82.2976 121.331 82.2976H120.351V87.9505C121.147 87.6718 121.311 87.6226 121.589 87.6226C122.266 87.6226 122.405 87.9956 122.569 88.3236C123.668 87.5078 124.25 86.6428 124.717 85.9624H122.963C122.659 85.9624 121.725 85.9624 121.725 84.8392C121.725 83.716 122.59 83.6709 122.963 83.6709H136.068C136.347 83.6709 137.306 83.6709 137.306 84.8146C137.306 85.9583 136.417 85.9583 136.068 85.9583H127.566C127.308 86.4502 127.193 86.6346 127.005 86.938H133.965C134.875 86.938 136.56 86.938 136.56 89.086C136.56 90.4634 136.371 93.5952 135.789 94.7635C135.228 95.9318 134.178 96.0015 132.707 96.0015C131.588 96.0015 130.509 96.0015 130.509 94.739C130.509 94.1323 130.862 93.5953 131.563 93.5953C131.752 93.5953 132.662 93.6649 132.871 93.6649C133.547 93.6649 133.686 93.1033 133.781 92.636C133.99 91.5866 134.059 90.0658 134.059 89.6476C134.059 88.9917 133.826 88.9917 133.194 88.9917C132.26 92.0047 130.296 94.0831 129.038 95.112C127.845 96.0917 127.472 96.1409 127.099 96.1409C126.304 96.1409 125.836 95.5096 125.836 94.9029C125.836 94.3905 125.951 94.2962 127.472 93.2222C128.079 92.7795 129.599 91.5415 130.719 88.9917H129.386C128.312 90.9758 126.791 92.6114 124.738 93.9437C124.061 94.3864 122.635 95.2514 121.958 95.2514C121.282 95.2514 120.815 94.6447 120.815 94.0134C120.815 93.3821 121.257 93.173 121.63 93.009C123.639 92.0744 125.697 90.6725 126.701 88.9917H125.348L125.353 89.004ZM135.888 80.0799C135.888 82.2279 135.42 82.6952 133.272 82.6952H125.701C123.553 82.6952 123.086 82.2279 123.086 80.0799V77.4645C123.086 75.3616 123.508 74.8492 125.701 74.8492H133.272C135.42 74.8492 135.888 75.3165 135.888 77.4645V80.0799ZM133.158 77.8868V77.3948C133.158 77.0464 132.994 76.8332 132.596 76.8332H126.357C125.914 76.8332 125.795 77.0915 125.795 77.3948V77.8868H133.153H133.158ZM133.158 79.6617H125.799V80.1988C125.799 80.5021 125.918 80.7604 126.361 80.7604H132.6C133.067 80.7604 133.162 80.4816 133.162 80.1988V79.6617H133.158Z" fill="white"/>
<path d="M147.993 89.0531C147.829 89.4016 147.481 90.0821 147.058 90.7338C146.243 92.0661 145.796 92.2055 145.398 92.2055C144.652 92.2055 143.927 91.4102 143.927 90.5453C143.927 90.0329 144.021 89.9386 145.14 88.5817C145.398 88.2784 146.845 86.4542 147.989 84.0274H145.513C144.484 84.0274 144.066 83.5847 144.066 82.6254C144.066 81.3875 145.189 81.3875 145.513 81.3875H147.989V75.4517C147.989 74.4023 148.456 74.0251 149.461 74.0251C150.744 74.0251 150.768 75.054 150.768 75.4517V81.3875H152.941C153.736 81.3875 154.367 81.6457 154.367 82.7197C154.367 83.9577 153.433 84.0274 152.941 84.0274H150.768C151.19 84.8678 152.424 86.4788 152.777 86.8764C153.875 88.1144 153.97 88.2333 153.97 88.6514C153.97 89.3073 153.314 90.0288 152.638 90.0288C152.031 90.0288 151.609 89.4672 150.768 87.9709V94.8167C150.768 95.8457 150.326 96.2433 149.317 96.2433C147.985 96.2433 147.985 95.1693 147.985 94.8167V89.0449L147.993 89.0531ZM146.612 76.3904C147.009 77.5341 147.427 79.0755 147.427 79.5223C147.427 80.5512 146.095 80.5717 145.956 80.5717C145.255 80.5717 145.16 80.1741 144.927 79.1943C144.787 78.6122 144.39 77.3251 144.25 76.9069C144.181 76.6487 144.131 76.4396 144.131 76.2756C144.131 75.5993 144.902 75.2713 145.509 75.2713C146.165 75.2713 146.349 75.6689 146.607 76.3945L146.612 76.3904ZM154.675 76.3412C154.675 76.8331 154.232 78.4442 153.88 79.4034C153.507 80.3831 153.248 80.6168 152.736 80.6168C152.293 80.6168 151.334 80.3585 151.334 79.5428C151.334 79.3788 151.379 79.1943 151.756 78.0465C151.92 77.5095 152.014 77.2759 152.248 76.2469C152.342 75.8985 152.482 75.2877 153.183 75.2877C154.306 75.2877 154.679 75.8698 154.679 76.3371L154.675 76.3412ZM164.603 86.364C164.698 86.3394 164.837 86.3394 164.976 86.3394C166.005 86.3394 166.169 87.3888 166.169 87.9996C166.169 88.5612 166.005 89.0285 165.046 89.1925L163.947 89.3811V94.7553C163.947 95.4562 163.759 96.2023 162.57 96.2023C161.381 96.2023 160.934 95.8744 160.934 94.7553V89.9673L155.396 91.0413C154.367 91.2504 153.855 90.4797 153.855 89.5451C153.855 88.6104 154.347 88.3768 154.904 88.262L160.934 87.0937V75.4107C160.934 74.7343 161.123 73.9841 162.312 73.9841C163.501 73.9841 163.947 74.2875 163.947 75.4107V86.4829L164.603 86.364ZM158.2 82.5107C159.553 83.6093 159.836 83.888 159.836 84.425C159.836 85.2203 159.041 86.0156 158.319 86.0156C157.921 86.0156 157.852 85.9705 156.778 85.0112C156.544 84.7776 155.376 83.8429 155.167 83.6339C154.888 83.3551 154.794 83.142 154.794 82.8386C154.794 82.0433 155.45 81.3424 156.171 81.3424C156.757 81.3424 157.548 81.9737 158.204 82.5107H158.2ZM159.229 76.7389C160.258 77.6284 160.443 77.8375 160.443 78.4196C160.443 79.1902 159.787 79.9158 159.016 79.9158C158.573 79.9158 158.524 79.8912 157.45 78.8869C157.241 78.6778 156.167 77.7432 155.954 77.5546C155.696 77.321 155.581 77.0422 155.581 76.7143C155.581 75.919 156.257 75.3369 156.913 75.3369C157.569 75.3369 158.479 76.1076 159.225 76.7389H159.229Z" fill="white"/>
</g>
<defs>
<filter id="filter0_d_2188_314" x="-6.0625" y="-6.99756" width="266" height="266" filterUnits="userSpaceOnUse" color-interpolation-filters="sRGB">
<feFlood flood-opacity="0" result="BackgroundImageFix"/>
<feColorMatrix in="SourceAlpha" type="matrix" values="0 0 0 0 0 0 0 0 0 0 0 0 0 0 0 0 0 0 127 0" result="hardAlpha"/>
<feOffset/>
<feGaussianBlur stdDeviation="3.5"/>
<feComposite in2="hardAlpha" operator="out"/>
<feColorMatrix type="matrix" values="0 0 0 0 0 0 0 0 0 0 0 0 0 0 0 0 0 0 0.75 0"/>
<feBlend mode="normal" in2="BackgroundImageFix" result="effect1_dropShadow_2188_314"/>
<feBlend mode="normal" in="SourceGraphic" in2="effect1_dropShadow_2188_314" result="shape"/>
</filter>
<clipPath id="clip0_2188_314">
<rect width="252" height="252" fill="white" transform="translate(0.935059)"/>
</clipPath>
</defs>
</svg>
